<?xml version="1.0" encoding="UTF-8"?>
<svg version="1.1" xmlns="http://www.w3.org/2000/svg" width="720" height="720">
<path d="M0 0 C1.54084167 1.50055823 3.06338957 3.0202497 4.5625 4.5625 C5.19671875 5.17609375 5.8309375 5.7896875 6.484375 6.421875 C15.12528769 15.3686607 19.55539336 27.71632231 22.5625 39.5625 C22.88347656 40.79226562 22.88347656 40.79226562 23.2109375 42.046875 C25.9944331 54.713797 26.08085758 68.56391168 24.9375 81.4375 C24.42934547 87.60436304 25.11200103 90.97536236 27.5625 96.5625 C28.75597039 104.04881425 26.514583 110.16312956 22.359375 116.35546875 C20.47765521 118.76716658 18.81637032 120.43396817 16.078125 121.8203125 C12.73825892 124.13332534 12.13648563 126.27584438 10.75 130.0625 C5.23943091 144.02308985 -5.12446431 156.4305166 -18.4375 163.5625 C-19.0975 163.5625 -19.7575 163.5625 -20.4375 163.5625 C-20.4375 167.8525 -20.4375 172.1425 -20.4375 176.5625 C-19.2721875 176.58828125 -18.106875 176.6140625 -16.90625 176.640625 C6.94434797 177.38079045 41.51283495 179.83584368 59.9296875 197.55859375 C69.04765467 208.74882618 73.97641022 222.0484732 78.5625 235.5625 C78.91812012 236.60615723 79.27374023 237.64981445 79.64013672 238.72509766 C94.39404421 282.67415455 102.31801517 328.47047172 106.5625 374.5625 C106.69269531 375.85800781 106.82289063 377.15351563 106.95703125 378.48828125 C108.83280781 399.77209257 110.58826834 427.8242867 97.65234375 446.2890625 C94.59530909 449.61465908 91.91749477 450.77508672 87.4375 450.9765625 C86.65391113 451.01571777 85.87032227 451.05487305 85.06298828 451.09521484 C84.23782715 451.12566895 83.41266602 451.15612305 82.5625 451.1875 C81.7154248 451.22182129 80.86834961 451.25614258 79.99560547 451.29150391 C78.30029642 451.35699349 76.60481216 451.41811019 74.90917969 451.47460938 C72.87814053 451.55067826 70.84880111 451.66982978 68.8203125 451.796875 C61.32839967 452.13317034 61.32839967 452.13317034 57.375 449.1875 C54.54415821 445.08766016 54.45109506 442.92580349 54.5 437.9375 C54.51353516 436.15472656 54.51353516 436.15472656 54.52734375 434.3359375 C54.54474609 432.96308594 54.54474609 432.96308594 54.5625 431.5625 C53.78519531 431.30855469 53.00789063 431.05460937 52.20703125 430.79296875 C48.57291213 429.1020566 47.85917075 427.25495824 46.29296875 423.70703125 C44.67592455 418.9596662 45.09295573 415.13560809 47.0625 410.625 C50.35369714 404.60280948 55.50356423 400.07545183 60.9375 396 C64.251588 392.92263257 64.89432253 391.01701646 65.5625 386.5625 C64.75082709 373.94352271 60.55233692 361.73232876 57.13739014 349.61236572 C56.58377885 347.63837324 56.03913206 345.66211567 55.49658203 343.68505859 C49.46281266 321.96516413 40.86692947 301.79226648 31.27804565 281.41056824 C29.59530113 277.83078077 27.97894146 274.25892316 26.5625 270.5625 C24.45852201 272.66647799 25.11306463 277.17558458 24.94921875 280.08984375 C24.83696267 281.91726437 24.72423049 283.74465578 24.61108398 285.57202148 C24.55250214 286.53921112 24.49392029 287.50640076 24.43356323 288.50289917 C23.49170932 303.88087612 22.35679506 319.20344099 20.5 334.5 C20.41809418 335.17980927 20.33618835 335.85961853 20.25180054 336.56002808 C18.89954823 347.67950838 18.89954823 347.67950838 17.99658203 352.72412109 C16.14516721 363.08846178 16.42775865 373.2761407 16.60351562 383.75878906 C16.82844876 398.52742534 16.29435878 413.062955 12.25 427.375 C12.03126221 428.17067383 11.81252441 428.96634766 11.5871582 429.78613281 C6.8073757 446.6704703 -1.88754616 461.66871595 -11.64782715 476.11523438 C-26.52706502 498.20985916 -37.70934429 519.83449141 -41.4375 546.5625 C-41.62054688 547.85027344 -41.80359375 549.13804687 -41.9921875 550.46484375 C-42.68646605 556.99050785 -42.66070165 563.55317295 -42.67773438 570.10864258 C-42.687435 572.35991454 -42.71854072 574.61026938 -42.75 576.86132812 C-42.84015827 589.12682032 -42.0057932 602.83935681 -32.91015625 612.12109375 C-25.61464418 617.90600568 -14.89747397 620.16255564 -5.74609375 619.3125 C6.39672822 617.42098948 15.53255439 611.23961884 25.5625 604.5625 C24.07924664 601.40664178 22.3121654 598.45896423 20.4909668 595.48803711 C6.45669579 572.55696285 0.04835585 550.5013096 6.02783203 523.77441406 C11.3944295 501.57287385 21.19460397 480.00723612 41.21484375 467.70703125 C43.5625 466.5625 43.5625 466.5625 46.5625 466.5625 C46.36914062 467.15675781 46.17578125 467.75101562 45.9765625 468.36328125 C41.84536442 481.51358009 40.0013748 492.33381207 45.9375 505.3125 C49.07493975 511.20194464 53.03941569 516.35693694 57.08935547 521.63305664 C66.92458757 534.48706898 72.90626907 547.18953834 73.5625 563.5625 C75.02083333 563.125 76.47916667 562.6875 77.9375 562.25 C80.75 561.40625 80.75 561.40625 83.5625 560.5625 C84.65510132 560.20828979 84.65510132 560.20828979 85.76977539 559.84692383 C91.89290077 557.90730026 97.8758354 556.64783383 104.25 555.875 C105.31436279 555.74472412 106.37872559 555.61444824 107.4753418 555.48022461 C121.60492366 554.01628389 135.84176233 554.44018549 150.02416992 554.76098633 C169.04745828 555.16862884 169.04745828 555.16862884 185.29296875 546.125 C186.71210647 544.37836896 187.63312497 542.60624415 188.5625 540.5625 C189.2225 540.8925 189.8825 541.2225 190.5625 541.5625 C183.98461213 572.28654767 166.89070886 600.05991394 140.36621094 617.44335938 C116.87314313 632.02000025 90.06534359 632.72480968 63.92578125 626.68359375 C58.65122023 625.38297005 53.56741535 623.67693615 48.5625 621.5625 C47.93085938 622.31273437 47.29921875 623.06296875 46.6484375 623.8359375 C28.43649234 644.90486208 0.36266196 658.41714988 -27.4375 660.5625 C-42.42480985 661.27963701 -57.94843807 662.00414074 -72.4375 657.5625 C-74.17193359 657.05203125 -74.17193359 657.05203125 -75.94140625 656.53125 C-101.78303707 648.13484745 -121.05795394 629.38717445 -133.4375 605.5625 C-144.30163834 583.68872147 -150.19884821 559.82323802 -152.4375 535.5625 C-152.54835938 534.46421875 -152.65921875 533.3659375 -152.7734375 532.234375 C-157.26199368 479.09957487 -151.69164566 406.18249704 -125.36000252 358.61606979 C-124.35388159 356.37635825 -124.19053376 354.91573951 -124.19699097 352.47491455 C-124.19424164 351.67007126 -124.19149231 350.86522797 -124.18865967 350.03599548 C-124.19585022 349.16205643 -124.20304077 348.28811737 -124.21044922 347.38769531 C-124.21015717 346.460522 -124.20986511 345.53334869 -124.20956421 344.57807922 C-124.2109568 341.51549907 -124.22651482 338.45316263 -124.2421875 335.390625 C-124.24591788 333.26641981 -124.24876473 331.1422129 -124.25076294 329.01800537 C-124.25839743 323.42843878 -124.27804443 317.8389762 -124.3001709 312.24945068 C-124.32063323 306.54522102 -124.32976549 300.84097454 -124.33984375 295.13671875 C-124.36129042 283.94526681 -124.39542423 272.75389206 -124.4375 261.5625 C-125.39442245 262.31437088 -126.35134491 263.06624176 -127.33726501 263.84089661 C-128.60757443 264.83899948 -129.87788388 265.8371023 -131.14819336 266.83520508 C-131.77714256 267.32938179 -132.40609177 267.8235585 -133.05410004 268.33271027 C-134.2863181 269.3008834 -135.51854553 270.26904462 -136.75078297 271.23719311 C-138.19509535 272.372035 -139.6392644 273.50705929 -141.08340454 274.64212036 C-155.63109931 286.0653037 -169.66378027 296.14039438 -188.125 299.875 C-189.09107178 300.07448242 -190.05714355 300.27396484 -191.05249023 300.47949219 C-209.61884409 304.13423216 -228.44296964 306.56658622 -247.1706543 309.23667908 C-249.20614098 309.52924603 -251.24002895 309.83288508 -253.27368164 310.13793945 C-255.93226011 310.49470062 -258.50208015 310.72247188 -261.1796875 310.80859375 C-262.01886719 310.84146484 -262.85804688 310.87433594 -263.72265625 310.90820312 C-265.44128159 310.96911971 -267.16003819 311.02644526 -268.87890625 311.08007812 C-276.50435417 311.38953352 -283.94215992 311.84708005 -290.1875 316.625 C-293.32689077 319.00279783 -295.57057989 319.88223805 -299.4375 320.5625 C-299.17317358 322.31942153 -299.17317358 322.31942153 -298.90350723 324.11183643 C-296.68691884 339.09395382 -294.9138491 354.11768549 -293.20018244 369.16437089 C-292.78519368 372.80235429 -292.36677222 376.4399433 -291.94885254 380.07759094 C-291.134856 387.16779442 -290.32408503 394.25836296 -289.51466677 401.34909042 C-288.85719933 407.10858436 -288.19879164 412.86797005 -287.53974152 418.6272831 C-285.668196 434.9833533 -283.79913569 451.33970471 -281.93328997 467.69642612 C-281.83316561 468.57415188 -281.73304125 469.45187765 -281.62988281 470.35620117 C-281.47951275 471.67440575 -281.47951275 471.67440575 -281.32610491 473.01924071 C-279.69451027 487.3210767 -278.05686796 501.62221304 -276.41655681 515.92305168 C-274.72931016 530.63370708 -273.0465562 545.34487034 -271.36852098 560.05657941 C-270.42746162 568.30622631 -269.4845241 576.55564862 -268.53673553 584.80452538 C-267.73179488 591.81045506 -266.93099932 598.81684277 -266.13568613 605.82387217 C-265.72975358 609.39922186 -265.32183355 612.97431604 -264.90868378 616.54883957 C-264.46186304 620.41518422 -264.02434978 624.28254824 -263.58782959 628.15007019 C-263.45467087 629.28942259 -263.32151214 630.42877498 -263.1843183 631.60265321 C-263.069724 632.63173651 -262.95512969 633.66081981 -262.83706284 634.72108746 C-262.68400669 636.06075291 -262.68400669 636.06075291 -262.5278585 637.42748231 C-262.4375 639.5625 -262.4375 639.5625 -263.4375 641.5625 C-266.15196979 641.87491455 -268.77659361 642.07586592 -271.5 642.1875 C-272.25861328 642.22617187 -273.01722656 642.26484375 -273.79882812 642.3046875 C-275.67797195 642.39923562 -277.55770336 642.48196756 -279.4375 642.5625 C-285.11761574 593.23070973 -290.78396939 543.89734408 -296.4375 494.5625 C-296.60058088 493.13945384 -296.60058088 493.13945384 -296.76695633 491.68765926 C-299.54179486 467.47390343 -302.31312715 443.25975062 -305.07590771 419.04461575 C-306.14419967 409.6815599 -307.21353577 400.31862636 -308.28579712 390.95602417 C-309.20278127 382.94907773 -310.11742164 374.94186793 -311.02900636 366.93430489 C-311.49644185 362.82880733 -311.96496401 358.72344141 -312.43637848 354.61839867 C-312.86930507 350.84818335 -313.29909617 347.07762421 -313.72639978 343.30676758 C-313.95557162 341.29160226 -314.18807389 339.27681655 -314.42068958 337.26204586 C-314.55595397 336.06283788 -314.69121836 334.86362989 -314.83058167 333.62808228 C-315.00763059 332.077443 -315.00763059 332.077443 -315.18825626 330.49547768 C-315.44255082 327.5030644 -315.48094343 324.56418029 -315.4375 321.5625 C-316.54609375 321.60890625 -317.6546875 321.6553125 -318.796875 321.703125 C-320.26038968 321.74065102 -321.72393356 321.77705029 -323.1875 321.8125 C-323.91710937 321.84601563 -324.64671875 321.87953125 -325.3984375 321.9140625 C-328.96248268 321.97886332 -330.99834502 321.88821241 -333.90234375 319.734375 C-335.85661747 316.96955009 -336.22735926 314.9247519 -336.4375 311.5625 C-336 309.1875 -336 309.1875 -335.4375 307.5625 C-336.241875 306.985 -337.04625 306.4075 -337.875 305.8125 C-340.4375 303.5625 -340.4375 303.5625 -341.375 301.6875 C-341.46442156 298.64716697 -340.59072911 296.35452836 -339.4375 293.5625 C-338.7775 292.9025 -338.1175 292.2425 -337.4375 291.5625 C-338.0975 291.046875 -338.7575 290.53125 -339.4375 290 C-341.4375 287.5625 -341.4375 287.5625 -341.9375 284.1875 C-341.36281942 280.02106576 -340.00079124 277.8467169 -337.4375 274.5625 C-338.0975 273.9025 -338.7575 273.2425 -339.4375 272.5625 C-339.66784485 269.4498914 -339.26663997 266.56607325 -338.4375 263.5625 C-336.4375 261.4375 -336.4375 261.4375 -333.4375 260.5625 C-329.60651425 260.60219933 -325.89360791 260.83444604 -322.4375 262.5625 C-322.56427124 261.64090088 -322.56427124 261.64090088 -322.69360352 260.70068359 C-325.38862969 240.89480036 -327.68960086 221.0437218 -329.9459343 201.18408966 C-330.18726668 199.06454916 -330.43011564 196.94518736 -330.67337036 194.8258667 C-331.13619723 190.79071675 -331.59197382 186.75480126 -332.046875 182.71875 C-332.18731735 181.49688995 -332.3277597 180.27502991 -332.47245789 179.0161438 C-333.08799404 173.49858608 -333.61773138 168.11524662 -333.4375 162.5625 C-334.18773437 162.60890625 -334.93796875 162.6553125 -335.7109375 162.703125 C-345.59822549 163.05179511 -352.52770265 161.23257408 -360.25 154.9375 C-369.54471419 146.06899845 -373.05523573 132.36609475 -373.54443359 119.82006836 C-373.56715332 118.81339111 -373.58987305 117.80671387 -373.61328125 116.76953125 C-373.63712891 115.72732422 -373.66097656 114.68511719 -373.68554688 113.61132812 C-373.72874493 111.44226233 -373.75986933 109.27292455 -373.77929688 107.10351562 C-373.80701172 106.06517578 -373.83472656 105.02683594 -373.86328125 103.95703125 C-373.87786377 103.01706299 -373.89244629 102.07709473 -373.9074707 101.10864258 C-374.58390076 97.85922337 -376.09793146 96.84288177 -378.4375 94.5625 C-380.47955622 88.66856048 -377.95573241 83.16848961 -376.25 77.4375 C-375.94513672 76.34050781 -375.64027344 75.24351563 -375.32617188 74.11328125 C-375.01873047 73.06269531 -374.71128906 72.01210937 -374.39453125 70.9296875 C-374.11585205 69.97175293 -373.83717285 69.01381836 -373.55004883 68.02685547 C-372.26761915 65.18620477 -371.12444995 64.09799195 -368.4375 62.5625 C-365.875 62.5625 -365.875 62.5625 -363.4375 63.5625 C-360.29973859 67.7984779 -359.10397724 72.48905705 -357.75 77.5 C-357.52505859 78.28568359 -357.30011719 79.07136719 -357.06835938 79.88085938 C-355.88452044 84.18082147 -354.98820715 88.06276407 -355.4375 92.5625 C-357.25 94.9375 -357.25 94.9375 -359.4375 96.5625 C-360.4275 96.5625 -361.4175 96.5625 -362.4375 96.5625 C-362.35552737 100.35497962 -362.24279057 104.14597719 -362.125 107.9375 C-362.10244141 108.99839844 -362.07988281 110.05929688 -362.05664062 111.15234375 C-361.73281509 120.74935516 -360.24931946 131.21988941 -353.4375 138.5625 C-349.54420919 140.93936682 -345.08081453 141.6647981 -340.671875 142.6328125 C-339.47643066 142.89602295 -339.47643066 142.89602295 -338.25683594 143.16455078 C-337.35626465 143.36153564 -337.35626465 143.36153564 -336.4375 143.5625 C-336.50014038 142.81161102 -336.56278076 142.06072205 -336.62731934 141.28707886 C-337.21842962 134.19596711 -337.80716336 127.1046639 -338.39325714 120.01313591 C-338.69462547 116.36769702 -338.99689841 112.72233794 -339.30126953 109.07714844 C-339.59520219 105.556564 -339.88671829 102.03578692 -340.17658997 98.51486588 C-340.34112061 96.52400381 -340.5081257 94.53334675 -340.6751709 92.54269409 C-340.82532654 90.71147507 -340.82532654 90.71147507 -340.97851562 88.84326172 C-341.06734009 87.77292694 -341.15616455 86.70259216 -341.24768066 85.599823 C-341.43649656 82.57855617 -341.47079443 79.58878666 -341.4375 76.5625 C-342.22125 76.459375 -343.005 76.35625 -343.8125 76.25 C-346.4375 75.5625 -346.4375 75.5625 -348.4375 72.5625 C-348.51415959 68.53787165 -347.91769737 64.55499811 -347.4375 60.5625 C-347.31246094 59.40621094 -347.18742187 58.24992187 -347.05859375 57.05859375 C-346.91550781 55.92550781 -346.77242187 54.79242188 -346.625 53.625 C-346.49480469 52.58472656 -346.36460937 51.54445313 -346.23046875 50.47265625 C-345.30202675 47.06531984 -343.79193285 45.15571914 -341.4375 42.5625 C-338.6875 42.625 -338.6875 42.625 -335.4375 43.5625 C-332.3415018 48.36006864 -329.98581252 53.46944281 -327.6875 58.6875 C-327.37167969 59.37714844 -327.05585938 60.06679687 -326.73046875 60.77734375 C-323.66561522 67.71638444 -323.66561522 67.71638444 -324.4375 71.5625 C-325.10962021 72.15563492 -325.78174042 72.74876984 -326.47422791 73.35987854 C-328.68160224 75.39680465 -328.68160224 75.39680465 -328.67433167 78.15611267 C-328.55178513 79.11513992 -328.42923859 80.07416718 -328.30297852 81.06225586 C-328.11084274 82.65854324 -328.11084274 82.65854324 -327.91482544 84.28707886 C-327.75730804 85.36796783 -327.59979065 86.44885681 -327.4375 87.5625 C-327.30036591 88.5450174 -327.16323181 89.52753479 -327.02194214 90.53982544 C-326.57665454 93.5546868 -326.08925101 96.5600566 -325.58984375 99.56640625 C-325.41369034 100.65211411 -325.23753693 101.73782196 -325.05604553 102.85643005 C-324.50003385 106.28001065 -323.93796079 109.70255583 -323.375 113.125 C-322.80927431 116.57970143 -322.24489221 120.03460844 -321.6832428 123.48997498 C-321.33524515 125.62944084 -320.98477796 127.76850681 -320.63157654 129.90711975 C-320.39616905 131.35023781 -320.39616905 131.35023781 -320.15600586 132.82250977 C-320.01690292 133.6678981 -319.87779999 134.51328644 -319.73448181 135.3842926 C-319.4375 137.5625 -319.4375 137.5625 -319.4375 140.5625 C-317.34457834 139.5402348 -315.26346577 138.49377333 -313.1875 137.4375 C-312.02734375 136.85742188 -310.8671875 136.27734375 -309.671875 135.6796875 C-305.49804194 132.94754074 -303.33608212 129.99121489 -301.609375 125.32421875 C-301.47015625 124.63972656 -301.3309375 123.95523438 -301.1875 123.25 C-301.03796875 122.57324219 -300.8884375 121.89648438 -300.734375 121.19921875 C-299.88603648 113.66463322 -300.67904401 106.94636094 -302.5625 99.625 C-302.75070312 98.77615234 -302.93890625 97.92730469 -303.1328125 97.05273438 C-303.72680506 94.71945736 -304.29857327 92.68504527 -305.4375 90.5625 C-308.42715849 89.25143883 -308.42715849 89.25143883 -311.4375 88.5625 C-313.28247286 85.06932053 -313.6934472 82.09584476 -313.703125 78.18359375 C-313.70570313 77.18005859 -313.70828125 76.17652344 -313.7109375 75.14257812 C-313.70320313 74.10552734 -313.69546875 73.06847656 -313.6875 72 C-313.69910156 70.43862305 -313.69910156 70.43862305 -313.7109375 68.84570312 C-313.70835937 67.84345703 -313.70578125 66.84121094 -313.703125 65.80859375 C-313.70086914 64.89779053 -313.69861328 63.9869873 -313.69628906 63.04858398 C-313.4197275 60.39176661 -312.9161747 58.78020062 -311.4375 56.5625 C-308.625 55.5 -308.625 55.5 -305.4375 55.5625 C-301.04440263 59.27528246 -298.17090385 63.721168 -295.1875 68.5625 C-294.74148438 69.26117188 -294.29546875 69.95984375 -293.8359375 70.6796875 C-291.62164064 74.23598245 -289.74203808 77.28334958 -289.4375 81.5625 C-290.41480219 84.26887529 -290.84262445 85.26506222 -293.4375 86.5625 C-292.41736224 91.98723255 -291.26192027 97.34377779 -289.875 102.6875 C-286.32969979 116.77917307 -285.17571179 132.78841261 -292.625 145.875 C-297.85841632 153.36688467 -304.61508016 158.14683742 -313.4375 160.5625 C-314.7575 160.5625 -316.0775 160.5625 -317.4375 160.5625 C-317.31745605 161.53219727 -317.19741211 162.50189453 -317.07373047 163.50097656 C-314.4864893 184.43192978 -311.9645701 205.37028731 -309.53106689 226.31970215 C-309.26068298 228.64541832 -308.989323 230.97102122 -308.71697998 233.29650879 C-308.33313338 236.57754897 -307.95312021 239.85901053 -307.57421875 243.140625 C-307.45883255 244.12224609 -307.34344635 245.10386719 -307.2245636 246.11523438 C-307.12040634 247.02499023 -307.01624908 247.93474609 -306.90893555 248.87207031 C-306.77167305 250.05558075 -306.77167305 250.05558075 -306.63163757 251.26300049 C-306.42534665 253.70645272 -306.40477572 256.11151768 -306.4375 258.5625 C-305.32375 258.48 -304.21 258.3975 -303.0625 258.3125 C-297.72658461 258.29344316 -293.14693069 260.16401671 -288.4375 262.5625 C-287.7775 263.2225 -287.1175 263.8825 -286.4375 264.5625 C-276.50963858 264.17157032 -266.25857417 260.61997483 -256.66796875 258.1328125 C-254.9755699 257.69669363 -253.28313038 257.2607326 -251.59065247 256.82492065 C-248.06573757 255.91576896 -244.54194465 255.00240768 -241.01879883 254.08642578 C-236.51834767 252.91707186 -232.01436671 251.76198568 -227.50933361 250.61042976 C-224.02183542 249.71663923 -220.53680507 248.81351125 -217.05239296 247.90777206 C-215.3927602 247.47791482 -213.73227404 247.0513378 -212.07091331 246.62820816 C-209.74799011 246.03547986 -207.42882336 245.42974972 -205.11010742 244.82080078 C-204.43412003 244.6513092 -203.75813263 244.48181763 -203.06166077 244.30718994 C-196.47412678 242.54866957 -191.07769483 239.62877679 -186.31640625 234.69921875 C-185.60806641 233.97669922 -184.89972656 233.25417969 -184.16992188 232.50976562 C-183.45384766 231.76404297 -182.73777344 231.01832031 -182 230.25 C-177.24029317 225.34384065 -172.4553541 220.59529366 -167.26635742 216.1418457 C-164.7136949 213.93744391 -162.27036892 211.62162181 -159.8125 209.3125 C-153.82681792 203.76970037 -147.52880827 198.69565003 -141.02587891 193.77441406 C-139.61946789 192.70133932 -138.23562915 191.59882141 -136.85546875 190.4921875 C-121.29938666 178.57359724 -95.69804095 175.06766397 -76.4375 175.5625 C-76.19937704 172.01867011 -76.32743397 168.95408424 -77.4375 165.5625 C-79.67762397 163.61985729 -81.96278573 162.45554199 -84.60546875 161.1171875 C-97.45585749 154.0627672 -106.42558393 140.89496661 -111.9375 127.6875 C-113.99945761 122.96878931 -115.94201217 121.1848679 -120.4375 118.5625 C-125.06820304 114.13534435 -126.31531866 109.06677551 -127.46875 102.91796875 C-127.43926074 99.75155909 -127.02230854 98.20463733 -125.96875 95.30859375 C-123.23243324 86.87293361 -124.2754902 77.78159786 -124.49902344 69.02832031 C-125.06481932 44.67924502 -120.12783908 21.23127925 -102.90234375 2.9453125 C-92.35826833 -7.24785074 -79.04355174 -13.65738744 -64.4375 -15.4375 C-62.9834375 -15.61925781 -62.9834375 -15.61925781 -61.5 -15.8046875 C-40.01746692 -17.96347146 -16.75245831 -14.65524256 0 0 Z " fill="#B88B67" transform="translate(415.4375,42.4375)"/>
<path d="M0 0 C0.66 0 1.32 0 2 0 C3.2265625 1.50390625 3.2265625 1.50390625 4.625 3.5625 C8.72758408 9.22366381 13.58855754 14.06498412 20 17 C20 17.66 20 18.32 20 19 C21.299375 19.185625 21.299375 19.185625 22.625 19.375 C26.93135942 20.17247397 30.88025587 21.60342395 35 23.0625 C63.35141714 31.92231786 96.4188345 22.0536928 123.18725586 12.65893555 C123.87590729 12.41852539 124.56455872 12.17811523 125.27407837 11.93041992 C127.1561205 11.27025019 129.03484154 10.60063442 130.91333008 9.93041992 C134 9 134 9 138 9 C147.44355078 27.88710155 139.09606764 62.67023522 133 82 C128.08155379 96.20699835 120.16517397 109.15587498 111.78967285 121.55273438 C96.91043498 143.64735916 85.72815571 165.27199141 82 192 C81.72542969 193.93166016 81.72542969 193.93166016 81.4453125 195.90234375 C80.75103395 202.42800785 80.77679835 208.99067295 80.75976562 215.54614258 C80.750065 217.79741454 80.71895928 220.04776938 80.6875 222.29882812 C80.59734173 234.56432032 81.4317068 248.27685681 90.52734375 257.55859375 C97.82285582 263.34350568 108.54002603 265.60005564 117.69140625 264.75 C129.83422822 262.85848948 138.97005439 256.67711884 149 250 C147.51674664 246.84414178 145.7496654 243.89646423 143.9284668 240.92553711 C129.89419579 217.99446285 123.48585585 195.9388096 129.46533203 169.21191406 C134.8319295 147.01037385 144.63210397 125.44473612 164.65234375 113.14453125 C167 112 167 112 170 112 C169.80664062 112.59425781 169.61328125 113.18851562 169.4140625 113.80078125 C165.28286442 126.95108009 163.4388748 137.77131207 169.375 150.75 C172.51243975 156.63944464 176.47691569 161.79443694 180.52685547 167.07055664 C190.36208757 179.92456898 196.34376907 192.62703834 197 209 C198.45833333 208.5625 199.91666667 208.125 201.375 207.6875 C204.1875 206.84375 204.1875 206.84375 207 206 C208.09260132 205.64578979 208.09260132 205.64578979 209.20727539 205.28442383 C215.33040077 203.34480026 221.3133354 202.08533383 227.6875 201.3125 C228.75186279 201.18222412 229.81622559 201.05194824 230.9128418 200.91772461 C245.04242366 199.45378389 259.27926233 199.87768549 273.46166992 200.19848633 C292.48495828 200.60612884 292.48495828 200.60612884 308.73046875 191.5625 C310.14960647 189.81586896 311.07062497 188.04374415 312 186 C312.66 186.33 313.32 186.66 314 187 C307.42211213 217.72404767 290.32820886 245.49741394 263.80371094 262.88085938 C240.31064313 277.45750025 213.50284359 278.16230968 187.36328125 272.12109375 C182.08872023 270.82047005 177.00491535 269.11443615 172 267 C171.36835938 267.75023437 170.73671875 268.50046875 170.0859375 269.2734375 C151.87399234 290.34236208 123.80016196 303.85464988 96 306 C81.01269015 306.71713701 65.48906193 307.44164074 51 303 C49.84371094 302.6596875 48.68742187 302.319375 47.49609375 301.96875 C21.65446293 293.57234745 2.37954606 274.82467445 -10 251 C-20.86413834 229.12622147 -26.76134821 205.26073802 -29 181 C-29.11085938 179.90171875 -29.22171875 178.8034375 -29.3359375 177.671875 C-34.14281083 120.76888795 -26.17321255 51.32157039 0 0 Z " fill="#00CDB8" transform="translate(292,397)"/>
<path d="M0 0 C1.54084167 1.50055823 3.06338957 3.0202497 4.5625 4.5625 C5.19671875 5.17609375 5.8309375 5.7896875 6.484375 6.421875 C15.12528769 15.3686607 19.55539336 27.71632231 22.5625 39.5625 C22.88347656 40.79226562 22.88347656 40.79226562 23.2109375 42.046875 C25.9944331 54.713797 26.08085758 68.56391168 24.9375 81.4375 C24.42934547 87.60436304 25.11200103 90.97536236 27.5625 96.5625 C28.75597039 104.04881425 26.514583 110.16312956 22.359375 116.35546875 C20.47765521 118.76716658 18.81637032 120.43396817 16.078125 121.8203125 C12.73825892 124.13332534 12.13648563 126.27584438 10.75 130.0625 C4.83825557 145.03943576 -6.61110183 158.35705834 -21.47265625 164.8984375 C-39.30449725 172.11459772 -55.25676928 172.07983261 -73.4375 166.5625 C-74.62279297 166.23958984 -74.62279297 166.23958984 -75.83203125 165.91015625 C-90.96685789 161.19400864 -102.25359571 146.90177602 -109.4375 133.5625 C-110.33419454 131.55119911 -111.21109936 129.5308888 -112.0625 127.5 C-114.06039742 122.85388285 -116.02006752 121.13933561 -120.4375 118.5625 C-125.06820304 114.13534435 -126.31531866 109.06677551 -127.46875 102.91796875 C-127.43926074 99.75155909 -127.02230854 98.20463733 -125.96875 95.30859375 C-123.23243324 86.87293361 -124.2754902 77.78159786 -124.49902344 69.02832031 C-125.06481932 44.67924502 -120.12783908 21.23127925 -102.90234375 2.9453125 C-92.35826833 -7.24785074 -79.04355174 -13.65738744 -64.4375 -15.4375 C-63.468125 -15.55867188 -62.49875 -15.67984375 -61.5 -15.8046875 C-40.01746692 -17.96347146 -16.75245831 -14.65524256 0 0 Z " fill="#B98C67" transform="translate(415.4375,42.4375)"/>
<path d="M0 0 C1.54084167 1.50055823 3.06338957 3.0202497 4.5625 4.5625 C5.19671875 5.17609375 5.8309375 5.7896875 6.484375 6.421875 C15.12528769 15.3686607 19.55539336 27.71632231 22.5625 39.5625 C22.88347656 40.79226562 22.88347656 40.79226562 23.2109375 42.046875 C27.76585159 62.77503476 27.15814887 86.37120225 17.5625 105.5625 C16.9025 105.5625 16.2425 105.5625 15.5625 105.5625 C15.43357361 105.03125015 15.30464722 104.50000031 15.17181396 103.95265198 C13.81891341 98.38525737 12.45407944 92.82088307 11.08251953 87.25805664 C10.57331519 85.18620526 10.06707968 83.11362174 9.56396484 81.0402832 C8.83705022 78.04697833 8.09922615 75.05653645 7.359375 72.06640625 C7.13940857 71.15041153 6.91944214 70.23441681 6.69281006 69.29066467 C4.10305781 58.35143123 4.10305781 58.35143123 -2.4375 49.5625 C-8.76079176 48.63201561 -15.30522863 49.50577137 -21.61743164 50.28540039 C-40.49316104 52.60225482 -59.72078547 52.48513795 -78.5703125 50.0234375 C-84.444994 49.32322294 -90.57691533 48.60467591 -96.4375 49.5625 C-98.68820942 51.49993846 -98.68820942 51.49993846 -100.4375 53.5625 C-101.0975 53.5625 -101.7575 53.5625 -102.4375 53.5625 C-103.75832439 58.81876742 -105.0508502 64.08075736 -106.3125 69.3515625 C-106.6613191 70.80211682 -107.01028168 72.25263665 -107.359375 73.703125 C-107.90040384 75.95183758 -108.44066121 78.20072117 -108.97851562 80.45019531 C-109.50408494 82.64707507 -110.03300352 84.84312643 -110.5625 87.0390625 C-110.72089355 87.70483307 -110.87928711 88.37060364 -111.04248047 89.05654907 C-111.7589007 92.01634001 -112.55057815 94.90106867 -113.515625 97.79052734 C-114.59164894 101.02600824 -115.03203194 104.18359953 -115.4375 107.5625 C-117.48859345 105.51140655 -117.98423394 104.45900132 -118.91015625 101.7890625 C-119.16990234 101.0465625 -119.42964844 100.3040625 -119.69726562 99.5390625 C-119.96216797 98.76304687 -120.22707031 97.98703125 -120.5 97.1875 C-120.76876953 96.41921875 -121.03753906 95.6509375 -121.31445312 94.859375 C-129.37297271 71.628331 -125.13458626 42.61861776 -115.4375 20.5625 C-107.6414829 4.62397614 -94.49895 -6.28264997 -78.00390625 -12.25390625 C-73.48177332 -13.75467983 -69.1647392 -14.86136772 -64.4375 -15.4375 C-63.468125 -15.55867188 -62.49875 -15.67984375 -61.5 -15.8046875 C-40.01746692 -17.96347146 -16.75245831 -14.65524256 0 0 Z " fill="#28B9AD" transform="translate(415.4375,42.4375)"/>
<path d="M0 0 C2.75 0.0625 2.75 0.0625 6 1 C9.0959982 5.79756864 11.45168748 10.90694281 13.75 16.125 C14.06582031 16.81464844 14.38164063 17.50429687 14.70703125 18.21484375 C17.77188478 25.15388444 17.77188478 25.15388444 17 29 C16.32787979 29.59313492 15.65575958 30.18626984 14.96327209 30.79737854 C12.75589776 32.83430465 12.75589776 32.83430465 12.76316833 35.59361267 C12.94698814 37.03215355 12.94698814 37.03215355 13.13452148 38.49975586 C13.262612 39.56394745 13.39070251 40.62813904 13.52267456 41.72457886 C13.68019196 42.80546783 13.83770935 43.88635681 14 45 C14.13713409 45.9825174 14.27426819 46.96503479 14.41555786 47.97732544 C14.86084546 50.9921868 15.34824899 53.9975566 15.84765625 57.00390625 C16.02380966 58.08961411 16.19996307 59.17532196 16.38145447 60.29393005 C16.93746615 63.71751065 17.49953921 67.14005583 18.0625 70.5625 C18.62822569 74.01720143 19.19260779 77.47210844 19.7542572 80.92747498 C20.10225485 83.06694084 20.45272204 85.20600681 20.80592346 87.34461975 C20.96286179 88.30669846 21.11980011 89.26877716 21.28149414 90.26000977 C21.49014854 91.52809227 21.49014854 91.52809227 21.70301819 92.8217926 C22 95 22 95 22 98 C24.09292166 96.9777348 26.17403423 95.93127333 28.25 94.875 C29.41015625 94.29492188 30.5703125 93.71484375 31.765625 93.1171875 C35.93945806 90.38504074 38.10141788 87.42871489 39.828125 82.76171875 C39.96734375 82.07722656 40.1065625 81.39273438 40.25 80.6875 C40.39953125 80.01074219 40.5490625 79.33398438 40.703125 78.63671875 C41.55146352 71.10213322 40.75845599 64.38386094 38.875 57.0625 C38.68679687 56.21365234 38.49859375 55.36480469 38.3046875 54.49023438 C37.71069494 52.15695736 37.13892673 50.12254527 36 48 C33.01034151 46.68893883 33.01034151 46.68893883 30 46 C28.15502714 42.50682053 27.7440528 39.53334476 27.734375 35.62109375 C27.73179688 34.61755859 27.72921875 33.61402344 27.7265625 32.58007812 C27.73429687 31.54302734 27.74203125 30.50597656 27.75 29.4375 C27.73839844 27.87612305 27.73839844 27.87612305 27.7265625 26.28320312 C27.72914062 25.28095703 27.73171875 24.27871094 27.734375 23.24609375 C27.73663086 22.33529053 27.73888672 21.4244873 27.74121094 20.48608398 C28.0177725 17.82926661 28.5213253 16.21770062 30 14 C32.8125 12.9375 32.8125 12.9375 36 13 C40.39309737 16.71278246 43.26659615 21.158668 46.25 26 C46.69601563 26.69867188 47.14203125 27.39734375 47.6015625 28.1171875 C49.81585936 31.67348245 51.69546192 34.72084958 52 39 C51.02269781 41.70637529 50.59487555 42.70256222 48 44 C49.02013776 49.42473255 50.17557973 54.78127779 51.5625 60.125 C55.10780021 74.21667307 56.26178821 90.22591261 48.8125 103.3125 C43.57908368 110.80438467 36.82241984 115.58433742 28 118 C26.68 118 25.36 118 24 118 C24.12004395 118.96969727 24.24008789 119.93939453 24.36376953 120.93847656 C26.94875358 141.85133033 29.47086786 162.7714613 31.90643311 183.70227051 C32.17661055 186.02117514 32.44796824 188.33994257 32.72052002 190.65856934 C33.10489618 193.93214453 33.48471359 197.20621741 33.86328125 200.48046875 C33.97866745 201.45692856 34.09405365 202.43338837 34.2129364 203.43943787 C34.73366159 207.98730592 35.13912849 212.41258459 35 217 C33.02 217.33 31.04 217.66 29 218 C29 218.66 29 219.32 29 220 C21.25 221.125 21.25 221.125 19 220 C18.5168457 218.0246582 18.5168457 218.0246582 18.17578125 215.30078125 C18.0375293 214.223125 17.89927734 213.14546875 17.75683594 212.03515625 C17.61020508 210.80667969 17.46357422 209.57820312 17.3125 208.3125 C17.15168945 207.01570312 16.99087891 205.71890625 16.82519531 204.3828125 C16.19568432 199.25766965 15.59751618 194.12895673 15 189 C14.86213074 187.81935974 14.72426147 186.63871948 14.58221436 185.42230225 C13.54071217 176.49019526 12.51201078 167.55667399 11.49245834 158.62203598 C11.25026276 156.50229975 11.00700362 154.3826876 10.76358032 152.26309204 C10.30073534 148.2280558 9.84524833 144.19222089 9.390625 140.15625 C9.25019272 138.93439499 9.10976044 137.71253998 8.96507263 136.45365906 C8.34949015 130.93609801 7.81976839 125.5527538 8 120 C7.24976563 120.04640625 6.49953125 120.0928125 5.7265625 120.140625 C-4.16072549 120.48929511 -11.09020265 118.67007408 -18.8125 112.375 C-28.10721419 103.50649845 -31.61773573 89.80359475 -32.10693359 77.25756836 C-32.12965332 76.25089111 -32.15237305 75.24421387 -32.17578125 74.20703125 C-32.19962891 73.16482422 -32.22347656 72.12261719 -32.24804688 71.04882812 C-32.29124493 68.87976233 -32.32236933 66.71042455 -32.34179688 64.54101562 C-32.36951172 63.50267578 -32.39722656 62.46433594 -32.42578125 61.39453125 C-32.44036377 60.45456299 -32.45494629 59.51459473 -32.4699707 58.54614258 C-33.14640076 55.29672337 -34.66043146 54.28038177 -37 52 C-39.04205622 46.10606048 -36.51823241 40.60598961 -34.8125 34.875 C-34.50763672 33.77800781 -34.20277344 32.68101563 -33.88867188 31.55078125 C-33.58123047 30.50019531 -33.27378906 29.44960937 -32.95703125 28.3671875 C-32.67835205 27.40925293 -32.39967285 26.45131836 -32.11254883 25.46435547 C-30.83011915 22.62370477 -29.68694995 21.53549195 -27 20 C-24.4375 20 -24.4375 20 -22 21 C-18.86223859 25.2359779 -17.66647724 29.92655705 -16.3125 34.9375 C-16.08755859 35.72318359 -15.86261719 36.50886719 -15.63085938 37.31835938 C-14.44702044 41.61832147 -13.55070715 45.50026407 -14 50 C-15.8125 52.375 -15.8125 52.375 -18 54 C-18.99 54 -19.98 54 -21 54 C-20.91802737 57.79247962 -20.80529057 61.58347719 -20.6875 65.375 C-20.66494141 66.43589844 -20.64238281 67.49679688 -20.61914062 68.58984375 C-20.29531509 78.18685516 -18.81181946 88.65738941 -12 96 C-8.10670919 98.37686682 -3.64331453 99.1022981 0.765625 100.0703125 C1.96106934 100.33352295 1.96106934 100.33352295 3.18066406 100.60205078 C3.78104492 100.73337402 4.38142578 100.86469727 5 101 C4.93735962 100.24911102 4.87471924 99.49822205 4.81018066 98.72457886 C4.21907038 91.63346711 3.63033664 84.5421639 3.04424286 77.45063591 C2.74287453 73.80519702 2.44060159 70.15983794 2.13623047 66.51464844 C1.84229781 62.994064 1.55078171 59.47328692 1.26091003 55.95236588 C1.09637939 53.96150381 0.9293743 51.97084675 0.7623291 49.98019409 C0.61217346 48.14897507 0.61217346 48.14897507 0.45898438 46.28076172 C0.37015991 45.21042694 0.28133545 44.14009216 0.18981934 43.037323 C0.00100344 40.01605617 -0.03329443 37.02628666 0 34 C-1.175625 33.8453125 -1.175625 33.8453125 -2.375 33.6875 C-5 33 -5 33 -7 30 C-7.07665959 25.97537165 -6.48019737 21.99249811 -6 18 C-5.87496094 16.84371094 -5.74992187 15.68742187 -5.62109375 14.49609375 C-5.47800781 13.36300781 -5.33492187 12.22992188 -5.1875 11.0625 C-5.05730469 10.02222656 -4.92710938 8.98195313 -4.79296875 7.91015625 C-3.86452675 4.50281984 -2.35443285 2.59321914 0 0 Z " fill="#9C531B" transform="translate(74,85)"/>
<path d="M0 0 C0.66 0.33 1.32 0.66 2 1 C2.59765625 3.65234375 2.59765625 3.65234375 3.0625 6.9375 C3.58146009 11.10862576 3.58146009 11.10862576 5 15 C5.18558906 16.49143146 5.32092169 17.98928789 5.4296875 19.48828125 C5.53990234 20.89303711 5.53990234 20.89303711 5.65234375 22.32617188 C5.79523511 24.24267091 5.93604336 26.15932705 6.07421875 28.07617188 C6.57929593 34.45812168 7.38061631 40.75387073 8.32611084 47.08149719 C10.24088408 60.22204709 11.73478913 73.40906438 13.23731756 86.60187089 C13.65230632 90.23985429 14.07072778 93.8774433 14.48864746 97.51509094 C15.302644 104.60529442 16.11341497 111.69586296 16.92283323 118.78659042 C17.58030067 124.54608436 18.23870836 130.30547005 18.89775848 136.0647831 C20.769304 152.4208533 22.63836431 168.77720471 24.50421003 185.13392612 C24.60433439 186.01165188 24.70445875 186.88937765 24.80761719 187.79370117 C24.9078639 188.67250422 25.0081106 189.55130727 25.11139509 190.45674071 C26.74298973 204.7585767 28.38063204 219.05971304 30.02094319 233.36055168 C31.70818984 248.07120708 33.3909438 262.78237034 35.06897902 277.49407941 C36.01003838 285.74372631 36.9529759 293.99314862 37.90076447 302.24202538 C38.70570512 309.24795506 39.50650068 316.25434277 40.30181387 323.26137217 C40.70774642 326.83672186 41.11566645 330.41181604 41.52881622 333.98633957 C41.97563696 337.85268422 42.41315022 341.72004824 42.84967041 345.58757019 C42.98282913 346.72692259 43.11598786 347.86627498 43.2531817 349.04015321 C43.367776 350.06923651 43.48237031 351.09831981 43.60043716 352.15858746 C43.7024746 353.05169776 43.80451203 353.94480806 43.9096415 354.86498231 C44 357 44 357 43 359 C40.28553021 359.31241455 37.66090639 359.51336592 34.9375 359.625 C34.17888672 359.66367187 33.42027344 359.70234375 32.63867188 359.7421875 C30.75952805 359.83673562 28.87979664 359.91946756 27 360 C22.59812645 321.76973976 18.20433106 283.53855663 13.8200531 245.30627441 C13.71750184 244.41200186 13.61495058 243.51772931 13.50929171 242.59635758 C12.65282558 235.12772661 12.65282558 235.12772661 12.25233185 231.63509893 C10.72544421 218.31969839 9.19654013 205.00453058 7.66654837 191.68948638 C5.5600224 173.35667029 3.45778154 155.02336929 1.36159229 136.68936825 C0.29455766 127.35766747 -0.77440717 118.02619657 -1.84829712 108.69528198 C-2.76692322 100.71338749 -3.68169954 92.73106363 -4.59150636 84.74815887 C-5.05777533 80.65804416 -5.52586804 76.56815994 -5.99887848 72.47881889 C-6.43376483 68.71865726 -6.8633694 64.95792988 -7.28889978 61.19669831 C-7.51655889 59.1964416 -7.74975953 57.19681798 -7.98318958 55.19722652 C-8.74301586 48.42997768 -9.20873079 41.81045892 -9 35 C-8.35804687 34.74863281 -7.71609375 34.49726563 -7.0546875 34.23828125 C-6.37664062 33.82964844 -5.69859375 33.42101562 -5 33 C-3.80396248 27.78869368 -3.69972291 24.88808882 -6 20 C-5.67 19.34 -5.34 18.68 -5 18 C-4.85624578 14.62177584 -4.92463652 12.22609045 -6 9 C-5.29296875 6.9921875 -5.29296875 6.9921875 -4.1875 4.875 C-3.83042969 4.17117188 -3.47335938 3.46734375 -3.10546875 2.7421875 C-2 1 -2 1 0 0 Z " fill="#853809" transform="translate(109,325)"/>
<path d="M0 0 C-0.58007812 0.69222656 -0.58007812 0.69222656 -1.171875 1.3984375 C-7.15295804 8.88959596 -10.29173952 16.43848353 -11 26 C-7.75846834 28.1610211 -6.76307099 28.64247553 -3 28 C0.16679284 24.54876468 2.21926197 20.88743548 4.25 16.6875 C4.77078125 15.61886719 5.2915625 14.55023438 5.828125 13.44921875 C6.21484375 12.64097656 6.6015625 11.83273437 7 11 C9.7662543 11.3509871 10.76311869 11.70132356 12.52734375 13.92578125 C12.99269531 14.71339844 13.45804688 15.50101562 13.9375 16.3125 C17.94293907 22.63108014 22.16679983 25.32031366 29 28 C29 28.33 29 28.66 29 29 C22.78441283 28.72375168 19.12288576 27.78117759 14 24 C13.01 24 12.02 24 11 24 C10.34 22.68 9.68 21.36 9 20 C8.34 20 7.68 20 7 20 C6.690625 20.928125 6.38125 21.85625 6.0625 22.8125 C5.375 24.875 4.6875 26.9375 4 29 C4.33 29.66 4.66 30.32 5 31 C5.12595108 33.89687477 5.17457063 36.38900279 4.375 39.1875 C4.25125 39.785625 4.1275 40.38375 4 41 C4.66 41.99 5.32 42.98 6 44 C6.046875 45.97265625 6.046875 45.97265625 5.75 48.0625 C5.66234375 48.75472656 5.5746875 49.44695312 5.484375 50.16015625 C5 52 5 52 3 54 C2.01 54 1.02 54 0 54 C0 55.32 0 56.64 0 58 C-2.58445773 58.1081866 -5.16437352 58.18737237 -7.75 58.25 C-8.47960937 58.28351563 -9.20921875 58.31703125 -9.9609375 58.3515625 C-13.52498268 58.41636332 -15.56084502 58.32571241 -18.46484375 56.171875 C-20.41911747 53.40705009 -20.78985926 51.3622519 -21 48 C-20.5625 45.625 -20.5625 45.625 -20 44 C-20.804375 43.4225 -21.60875 42.845 -22.4375 42.25 C-25 40 -25 40 -25.9375 38.125 C-26.02692156 35.08466697 -25.15322911 32.79202836 -24 30 C-23.34 29.34 -22.68 28.68 -22 28 C-22.66 27.484375 -23.32 26.96875 -24 26.4375 C-26 24 -26 24 -26.5 20.625 C-25.92531942 16.45856576 -24.56329124 14.2842169 -22 11 C-22.66 10.34 -23.32 9.68 -24 9 C-24.23034485 5.8873914 -23.82913997 3.00357325 -23 0 C-17.43775083 -5.90988974 -6.90793343 -1.68207362 0 0 Z " fill="#AA8063" transform="translate(100,306)"/>
<path d="M0 0 C2 2 2 2 2 5 C2.66 5 3.32 5 4 5 C5.79078737 6.93964375 7.40510075 8.9911151 9.05078125 11.0546875 C11.8640018 13.86227033 14.44227691 14.91388198 18.40234375 15.1328125 C19.65724609 15.12894531 19.65724609 15.12894531 20.9375 15.125 C27.65406236 15.5812882 32.37234134 18.69867995 37.93359375 22.1875 C42.52963874 24.90414315 45.83953116 25.07169503 51.125 25.25 C56.85656554 25.63639768 60.85575017 26.94242818 65.78125 29.84375 C72.65720167 33.42699242 80.62379718 32.03525654 88 31 C86.68563474 34.94309578 84.94208398 35.9057775 81.453125 37.9765625 C77.00330113 39.83301768 72.70948855 39.77890469 68 39 C63.56226736 36.82147671 60.78448959 34.06963864 58 30 C58 29.34 58 28.68 58 28 C57.443125 28.28875 56.88625 28.5775 56.3125 28.875 C50.28839037 31.80564793 45.50307511 33.5394425 38.86328125 31.26953125 C34.44929581 29.27059145 31.74811905 27.07128748 29 23 C28.4225 22.236875 27.845 21.47375 27.25 20.6875 C26.8375 20.130625 26.425 19.57375 26 19 C24.845 19.515625 23.69 20.03125 22.5 20.5625 C18.05302116 22.18314194 14.49190953 22.72565637 10 21 C5.73177962 18.11178727 1.83612157 14.92998641 0 10 C-0.1953125 7.421875 -0.1953125 7.421875 -0.125 4.75 C-0.09792969 3.41195312 -0.09792969 3.41195312 -0.0703125 2.046875 C-0.04710937 1.37140625 -0.02390625 0.6959375 0 0 Z " fill="#009D88" transform="translate(271,526)"/>
<path d="M0 0 C2.68312603 0.35775014 5.28080933 0.79880504 7.8894043 1.52856445 C12.11722962 2.47291734 16.4993225 2.18467539 20.8125 2.1875 C21.78509766 2.19974609 22.75769531 2.21199219 23.75976562 2.22460938 C29.28697214 2.23583593 33.75418651 1.69596326 39 0 C41.9375 0.375 41.9375 0.375 44 1 C44.495 2.485 44.495 2.485 45 4 C41.04434242 10.27449134 35.00477891 13.51105426 27.96484375 15.60546875 C17.92178989 17.62206605 10.4520468 14.13277744 2 9 C-0.94628584 6.56399872 -0.94628584 6.56399872 -1.25 3.375 C-1 1 -1 1 0 0 Z " fill="#5E4138" transform="translate(344,172)"/>
<path d="M0 0 C0.99 0.33 1.98 0.66 3 1 C2.0925 1.94875 1.185 2.8975 0.25 3.875 C-5.24873159 10.3096859 -7.383842 17.681867 -8 26 C-4.75846834 28.1610211 -3.76307099 28.64247553 0 28 C3.16679284 24.54876468 5.21926197 20.88743548 7.25 16.6875 C7.77078125 15.61886719 8.2915625 14.55023438 8.828125 13.44921875 C9.21484375 12.64097656 9.6015625 11.83273437 10 11 C12.7662543 11.3509871 13.76311869 11.70132356 15.52734375 13.92578125 C15.99269531 14.71339844 16.45804688 15.50101562 16.9375 16.3125 C20.94293907 22.63108014 25.16679983 25.32031366 32 28 C32 28.33 32 28.66 32 29 C25.78441283 28.72375168 22.12288576 27.78117759 17 24 C16.01 24 15.02 24 14 24 C13.34 22.68 12.68 21.36 12 20 C11.34 20 10.68 20 10 20 C9.7525 20.886875 9.505 21.77375 9.25 22.6875 C7.68475904 26.83538855 5.78423475 29.75103567 2.125 32.3125 C-2.64037343 33.85423846 -5.99248752 33.18351328 -10.375 31 C-11.58964795 30.34490897 -12.80029246 29.68206723 -14 29 C-14 28.34 -14 27.68 -14 27 C-13.34 27 -12.68 27 -12 27 C-11.27780932 19.72265339 -11.27780932 19.72265339 -14 13.3125 C-14.66 12.879375 -15.32 12.44625 -16 12 C-13.36 12 -10.72 12 -8 12 C-7.71125 11.236875 -7.4225 10.47375 -7.125 9.6875 C-6 7 -6 7 -4 4 C-3.34 4 -2.68 4 -2 4 C-2 3.34 -2 2.68 -2 2 C-1.34 2 -0.68 2 0 2 C0 1.34 0 0.68 0 0 Z " fill="#93684D" transform="translate(97,306)"/>
<path d="M0 0 C1.8871875 0.061875 1.8871875 0.061875 3.8125 0.125 C3.8125 0.785 3.8125 1.445 3.8125 2.125 C4.43125 2.393125 5.05 2.66125 5.6875 2.9375 C7.8125 4.125 7.8125 4.125 9.8125 7.125 C10.35151205 11.16759035 9.94271341 12.89061586 7.9375 16.5 C7.23625 17.36625 6.535 18.2325 5.8125 19.125 C5.1525 19.125 4.4925 19.125 3.8125 19.125 C3.8125 19.785 3.8125 20.445 3.8125 21.125 C-3.44617508 21.74014196 -3.44617508 21.74014196 -7.125 18.6875 C-7.805625 17.841875 -8.48625 16.99625 -9.1875 16.125 C-9.5175 15.795 -9.8475 15.465 -10.1875 15.125 C-10.59746741 9.89791555 -9.98341186 6.57774851 -7.1875 2.125 C-4.09861478 0.06574319 -3.47814073 -0.1140374 0 0 Z " fill="#4E3A30" transform="translate(399.1875,126.875)"/>
<path d="M0 0 C5.57894737 3.15789474 5.57894737 3.15789474 7 6 C7.34708476 11.29304255 7.51351894 14.73358414 4 19 C0.79062591 21.32402951 -2.11506021 21.47570691 -6 21 C-8.69990662 19.20006226 -10.5418865 17.916227 -12 15 C-12.56183086 10.98184256 -13.1290024 6.76968197 -10.87109375 3.23046875 C-7.41882238 0.10269286 -4.51260394 -0.84611324 0 0 Z " fill="#4D3930" transform="translate(335,127)"/>
<path d="M0 0 C3.25477431 2.81094145 4.7569681 5.64206098 5.20166016 9.95654297 C5.30689709 12.28782613 5.32734899 14.60388918 5.3125 16.9375 C5.31121094 17.78650879 5.30992187 18.63551758 5.30859375 19.51025391 C5.23324098 24.50143293 4.73136135 29.01374879 3.5 33.875 C1.05342611 43.61513377 0.22591569 56.21287489 3 66 C-1.66383462 61.7803401 -3.73634968 57.24592439 -4.23828125 51.06640625 C-4.4226275 42.3633226 -3.2426195 34.52412704 -1.43188477 26.01904297 C0.33308044 17.2953223 0.38950292 8.86119137 0 0 Z " fill="#009C87" transform="translate(444,556)"/>
<path d="M0 0 C1.74609375 1.46875 1.74609375 1.46875 3 3 C2.6875 5.6875 2.6875 5.6875 2 8 C0.7625 7.835 -0.475 7.67 -1.75 7.5 C-10.5611595 6.53021829 -19.22869737 6.83049298 -28 8 C-28.33 6.35 -28.66 4.7 -29 3 C-27.75627811 2.01287122 -26.50472782 1.03560095 -25.25 0.0625 C-24.55390625 -0.48277344 -23.8578125 -1.02804688 -23.140625 -1.58984375 C-15.90352008 -6.35735265 -6.81897264 -4.61283443 0 0 Z " fill="#664234" transform="translate(345,118)"/>
<path d="M0 0 C4.68930115 3.20244957 4.68930115 3.20244957 6.5625 5.75 C6.3125 8.5 6.3125 8.5 5.5625 10.75 C4.10369891 10.60892253 2.64546449 10.46197585 1.1875 10.3125 C0.37539063 10.23128906 -0.43671875 10.15007812 -1.2734375 10.06640625 C-3.4375 9.75 -3.4375 9.75 -5.4375 8.75 C-10.56232756 8.44853956 -14.54887939 9.30151982 -19.4375 10.75 C-22.375 10.875 -22.375 10.875 -24.4375 10.75 C-24.7675 9.1 -25.0975 7.45 -25.4375 5.75 C-17.82246041 -0.97956987 -10.00786619 -3.63922407 0 0 Z " fill="#644133" transform="translate(408.4375,115.25)"/>
<path d="M0 0 C3.44669067 3.44669067 4.14284259 7.56985585 4.375 12.3125 C4.17870831 20.08565105 0.39719078 26.60280922 -5 32 C-6.64538343 32.71759013 -8.31048086 33.39357827 -10 34 C-9.16192325 24.62722328 -6.92498712 6.92498712 0 0 Z " fill="#966851" transform="translate(439,131)"/>
<path d="M0 0 C2.0701592 3.81345117 3.49112273 7.85875234 4.9375 11.9375 C5.20256348 12.68443115 5.46762695 13.4313623 5.74072266 14.20092773 C7.99819942 20.71181263 9.65900187 27.23619367 11 34 C5.01126986 32.30207791 2.49866899 29.98097112 -1 25 C-3.8042164 19.92570366 -4.59827575 13.88556127 -3.42578125 8.23046875 C-1.4319332 1.4319332 -1.4319332 1.4319332 0 0 Z " fill="#976850" transform="translate(292,131)"/>
<path d="M0 0 C0.4846875 0.37511719 0.969375 0.75023437 1.46875 1.13671875 C3.62709984 2.78453584 5.8083265 4.39679649 8 6 C8.63550781 6.47566406 9.27101563 6.95132813 9.92578125 7.44140625 C17.80959755 12.9094776 26.6572268 13.30632043 36 13 C35 16 35 16 31.8125 17.625 C25.08717194 20.20326978 19.81987819 20.26920407 13 18 C7.39415536 14.98146827 3.49311633 11.05733344 0.6875 5.3125 C0 3 0 3 0 0 Z " fill="#009D87" transform="translate(275,562)"/>
<path d="M0 0 C2.85629596 1.30113265 4.92210213 2.71588005 7.1875 4.875 C16.22509234 12.62421439 25.57682394 12.73769975 37 13 C32.51652908 17.63941773 28.51654531 19.21160841 22.0625 19.4375 C15.56749315 19.24481747 12.15517897 17.95330733 7.3515625 13.45703125 C3.50258863 9.35458837 1.68522401 5.3365427 0 0 Z " fill="#009E89" transform="translate(286,506)"/>
<path d="M0 0 C3.33421737 0.68076828 6.03507896 1.96622557 9.0625 3.5 C17.12450243 7.20358301 24.51085982 7.92198585 33.02734375 5.375 C35.31832368 4.93948698 36.80065803 5.29148715 39 6 C32.25468201 11.94230394 27.18408677 14.67975041 17.96484375 14.40625 C10.39941748 13.36961715 5.97524307 8.28310115 1.25 2.671875 C0 1 0 1 0 0 Z " fill="#009C87" transform="translate(295,589)"/>
<path d="M0 0 C2.47761928 0.92802813 4.75960252 1.8498685 7.0078125 3.25390625 C15.3378709 8.40255858 24.50509679 7.89276803 34 8 C29.14274649 13.04469786 25.61916693 14.98083618 18.625 15.4375 C12.67852447 15.28733648 8.60651594 12.52890256 4.42578125 8.47265625 C2.0958038 5.84892806 0.40766914 3.53313255 0 0 Z " fill="#009D88" transform="translate(327,524)"/>
<path d="M0 0 C0.65226562 0.40992188 1.30453125 0.81984375 1.9765625 1.2421875 C2.85054688 1.78101563 3.72453125 2.31984375 4.625 2.875 C5.48351562 3.40867187 6.34203125 3.94234375 7.2265625 4.4921875 C13.21836447 7.74970237 18.2068197 8.27192601 24.875 8.125 C25.65875 8.11597656 26.4425 8.10695313 27.25 8.09765625 C29.16680055 8.07428063 31.08344191 8.03841653 33 8 C31.84494663 11.46516011 30.53990043 12.49581426 27.36328125 14.19921875 C21.20681845 16.28529292 14.35773941 16.09466473 8.5 13.375 C4.1608102 9.25276969 0.96414338 6.12697569 0 0 Z " fill="#009D88" transform="translate(316,574)"/>
<path d="M0 0 C0.47308594 0.38671875 0.94617188 0.7734375 1.43359375 1.171875 C12.32370256 9.74810104 21.46752037 10.70803712 35 11 C31.51580126 14.87133194 28.57137503 16.59481363 23.421875 17.40625 C16.00387772 17.66653061 11.47479945 16.03978631 6 11 C0 4.41735537 0 4.41735537 0 0 Z " fill="#009C87" transform="translate(298,468)"/>
<path d="M0 0 C0.66 0 1.32 0 2 0 C5.89637513 10.7150316 4.55822761 21.67502333 0 32 C-2.09688335 35.24186248 -4.38768942 38.16021294 -7 41 C-8.64125542 37.71748916 -6.78572171 34.5352084 -5.75 31.1875 C-2.71405658 20.9339311 -1.28514484 10.59460871 0 0 Z " fill="#009B86" transform="translate(462,595)"/>
<path d="M0 0 C2 2 2 2 3.625 5.25 C6.61029404 10.58565615 11.31752854 13.71972953 16.75 16.3125 C21.78630578 17.37787238 26.86856588 17.68447492 32 18 C30 21 30 21 27 22 C13.81552534 23.32347331 13.81552534 23.32347331 8.375 19.3125 C5.03362974 16.28594835 2.02868436 13.05736872 0 9 C-0.06950541 7.45976004 -0.08452357 5.91665012 -0.0625 4.375 C-0.05347656 3.55773437 -0.04445313 2.74046875 -0.03515625 1.8984375 C-0.02355469 1.27195312 -0.01195312 0.64546875 0 0 Z " fill="#009A85" transform="translate(277,476)"/>
<path d="M0 0 C0.72703125 0.3609375 1.4540625 0.721875 2.203125 1.09375 C12.49189994 5.84241536 21.20803309 6.3206052 32 3 C30.18001489 7.63268936 26.94690291 9.97531426 22.625 12.25 C16.67377684 13.95034947 12.18209967 13.18296694 6.8671875 10.27734375 C3.85505083 8.21673979 2.05659019 6.02061685 0 3 C0 2.01 0 1.02 0 0 Z " fill="#009D88" transform="translate(350,505)"/>
<path d="M0 0 C1.24716797 0.63228516 1.24716797 0.63228516 2.51953125 1.27734375 C4.14955078 2.09912109 4.14955078 2.09912109 5.8125 2.9375 C7.43091797 3.75541016 7.43091797 3.75541016 9.08203125 4.58984375 C12.49491252 6.23917459 15.26257573 7.11908293 19.01171875 7.31640625 C19.76904297 7.35830078 20.52636719 7.40019531 21.30664062 7.44335938 C22.48516602 7.50233398 22.48516602 7.50233398 23.6875 7.5625 C24.88342773 7.62727539 24.88342773 7.62727539 26.10351562 7.69335938 C28.06881447 7.79927368 30.03438496 7.90012551 32 8 C28.51217173 11.67635953 26.50528885 13.77657512 21.328125 14.23828125 C14.57790174 14.40104044 10.35216835 14.2598891 5 10 C0 4.3877551 0 4.3877551 0 0 Z " fill="#009D88" transform="translate(340,479)"/>
<path d="M0 0 C2.97 1.65 5.94 3.3 9 5 C9 5.66 9 6.32 9 7 C13.72995853 8.06929816 18.49827036 8.54953946 23.3125 9.0625 C24.14845703 9.15337891 24.98441406 9.24425781 25.84570312 9.33789062 C27.89691922 9.56059409 29.94843119 9.78056948 32 10 C28.74933355 13.395909 26.69232338 15.04415635 22 16 C15.62526384 16.09344076 10.96611679 15.25667154 6 11 C2.75942243 7.57939034 1.26329349 4.52680167 0 0 Z " fill="#009D88" transform="translate(312,494)"/>
<path d="M0 0 C0.54527344 0.38671875 1.09054687 0.7734375 1.65234375 1.171875 C4.0677627 2.8399592 6.51834746 4.43223799 9 6 C9.99193359 6.63808594 9.99193359 6.63808594 11.00390625 7.2890625 C18.43759313 11.33322092 26.79996311 10.33892231 35 10 C31.51334072 13.87406586 28.58034122 15.66829694 23.38671875 16.3359375 C15.99639398 16.44288865 10.73947518 15.44554264 5.2109375 10.3515625 C2.09149735 6.96600897 0.68986909 4.62291588 0 0 Z " fill="#009985" transform="translate(311,429)"/>
<path d="M0 0 C-6.57085002 5.02997683 -13.58555297 9.19450421 -20.75 13.3125 C-21.66096436 13.84004883 -22.57192871 14.36759766 -23.51049805 14.91113281 C-27.91914146 17.4201892 -32.07119594 19.65355518 -37 21 C-29.74759003 11.83906109 -13.03784967 -4.34594989 0 0 Z " fill="#009B86" transform="translate(512,625)"/>
<path d="M0 0 C0.63808594 0.86431641 0.63808594 0.86431641 1.2890625 1.74609375 C8.43571686 11.26493388 8.43571686 11.26493388 19 16 C20.91561254 16.06688591 22.83335592 16.08531719 24.75 16.0625 C25.73484375 16.05347656 26.7196875 16.04445313 27.734375 16.03515625 C28.48203125 16.02355469 29.2296875 16.01195312 30 16 C26.9579765 19.25181822 25.05930549 20.80279806 20.51171875 21.23828125 C14.45343647 21.39748922 10.70043536 21.2418563 6 17 C0.9849085 11.56698421 -0.28849672 7.35666631 0 0 Z " fill="#009A85" transform="translate(288,439)"/>
<path d="M0 0 C-1.770282 5.16332251 -4.09939434 8.68767704 -8.625 11.8125 C-14.25222396 13.79244917 -19.25218039 14.07816355 -24.8671875 11.875 C-27.30132411 10.66137948 -29.66382014 9.39176673 -32 8 C-32 7.34 -32 6.68 -32 6 C-31.16597656 6.09539062 -30.33195312 6.19078125 -29.47265625 6.2890625 C-19.248111 7.29629147 -12.15715824 6.98459949 -3.62890625 1.0234375 C-2 0 -2 0 0 0 Z " fill="#009B86" transform="translate(400,457)"/>
<path d="M0 0 C1.051875 0.433125 1.051875 0.433125 2.125 0.875 C12.35882864 4.87954164 22.20778277 4.72675476 33 3 C30.10526401 7.11943199 27.80043921 9.37127955 23 11 C16.76960648 11.87752021 11.63325862 12.048304 6.4375 8.1875 C5.25914278 7.16118887 4.11029039 6.0995888 3 5 C2.43410156 4.48050781 1.86820312 3.96101563 1.28515625 3.42578125 C0 2 0 2 0 0 Z " fill="#009B86" transform="translate(329,458)"/>
<path d="M0 0 C0.66 0.33 1.32 0.66 2 1 C-5.10377872 10.03735163 -5.10377872 10.03735163 -11 11 C-16.90358797 11.46853873 -20.68681683 10.90721343 -26 8 C-28.9375 5.3125 -28.9375 5.3125 -31 3 C-30.0925 3.165 -29.185 3.33 -28.25 3.5 C-18.99616852 4.79253922 -8.04280276 5.3618685 0 0 Z " fill="#009B87" transform="translate(393,436)"/>
<path d="M0 0 C0.33 0 0.66 0 1 0 C1.99278566 7.28042819 -1.12366357 12.96012695 -5 19 C-7.44221818 21.7088151 -10.02912846 23.89460963 -13 26 C-13.928125 26.66 -14.85625 27.32 -15.8125 28 C-18 29 -18 29 -21 28 C-20.32195313 27.23558594 -19.64390625 26.47117187 -18.9453125 25.68359375 C-13.10499939 18.99522071 -7.877867 12.1568306 -3.08642578 4.67553711 C-2.07787128 3.10384193 -1.04180926 1.54985205 0 0 Z " fill="#009B86" transform="translate(563,614)"/>
<path d="M0 0 C0.33 0.66 0.66 1.32 1 2 C-3.75269497 12.87750689 -12.12447937 19.70656445 -23 24 C-24.65788281 24.3745844 -26.32353326 24.72009259 -28 25 C-25.45983105 21.64950566 -22.96421555 18.98464906 -19.625 16.4375 C-15.10052854 12.90868319 -10.72153655 9.2434946 -6.375 5.5 C-5.74674316 4.95915771 -5.11848633 4.41831543 -4.47119141 3.86108398 C-2.9796514 2.57538064 -1.48965536 1.28788648 0 0 Z " fill="#009A85" transform="translate(538,620)"/>
<path d="M0 0 C0.68964844 -0.00386719 1.37929688 -0.00773438 2.08984375 -0.01171875 C7.24666707 -0.00166646 7.24666707 -0.00166646 9.5 1.125 C8.24334744 4.99967873 7.18812681 7.23109704 3.5 9.125 C0.14126141 9.6225909 -2.2689438 9.82807586 -5.28515625 8.10546875 C-6.9375 6.8125 -6.9375 6.8125 -9.5 4.125 C-9.5 3.135 -9.5 2.145 -9.5 1.125 C-6.46570323 -0.39214839 -3.32398333 -0.01863916 0 0 Z " fill="#99684F" transform="translate(365.5,155.875)"/>
<path d="M0 0 C2 1.0625 2 1.0625 3 3 C2.66666667 9.33333333 2.66666667 9.33333333 0 12 C-0.33 9.69 -0.66 7.38 -1 5 C-6.27281214 6.67878772 -11.24516352 8.82016736 -16.29296875 11.07421875 C-19 12 -19 12 -22 11 C-8.81991795 -1.18729665 -8.81991795 -1.18729665 0 0 Z " fill="#92684E" transform="translate(494,462)"/>
<path d="M0 0 C0.763125 0.20625 1.52625 0.4125 2.3125 0.625 C2.6425 2.605 2.9725 4.585 3.3125 6.625 C1.5625 8.1875 1.5625 8.1875 -0.6875 9.625 C-2.9375 9.3125 -2.9375 9.3125 -4.6875 8.625 C-5.0175 6.315 -5.3475 4.005 -5.6875 1.625 C-2.6875 -0.375 -2.6875 -0.375 0 0 Z " fill="#946A4F" transform="translate(410.6875,294.375)"/>
<path d="M0 0 C2.26274788 0.35355436 3.95088852 0.97544426 6 2 C6.23053497 4.84326464 6.35903101 6.46145349 4.75 8.875 C3 10 3 10 0.9375 9.8125 C-1 9 -1 9 -3 7 C-2.67028521 3.70285207 -2.3773161 2.3773161 0 0 Z " fill="#94694F" transform="translate(326,294)"/>
<path d="M0 0 C0.99386719 0.00902344 1.98773438 0.01804687 3.01171875 0.02734375 C4.15060547 0.04474609 4.15060547 0.04474609 5.3125 0.0625 C3.26016315 2.3102975 2.30582739 3.0647242 -0.6875 4.0625 C-2.74895107 4.131491 -4.81251401 4.14717727 -6.875 4.125 C-8.50501953 4.11146484 -8.50501953 4.11146484 -10.16796875 4.09765625 C-10.99941406 4.08605469 -11.83085938 4.07445312 -12.6875 4.0625 C-8.41027069 0.67021469 -5.42406114 -0.06381248 0 0 Z " fill="#92684D" transform="translate(95.6875,345.9375)"/>
<path d="M0 0 C0 0.99 0 1.98 0 3 C-2.64 3 -5.28 3 -8 3 C-6.23110084 -0.53779831 -3.70375662 0 0 0 Z " fill="#B88B67" transform="translate(100,361)"/>
</svg>
