<?xml version="1.0" encoding="UTF-8"?>
<svg version="1.1" xmlns="http://www.w3.org/2000/svg" width="720" height="720">
<path d="M0 0 C0.82628906 0.639375 1.65257812 1.27875 2.50390625 1.9375 C19.0380042 15.59947765 27.70436647 40.22222932 31.6875 60.5 C33.17638204 77.17547883 29.26862527 92.26228085 23.9375 107.875 C16.33789566 129.74861399 16.33789566 129.74861399 18 152.5 C22.7158339 161.91923225 32.30593307 165.09709962 41.625 168.4375 C58.9361607 174.88855646 75.42114394 181.60637018 84.00390625 199.0390625 C88.69723019 210.42093989 86.91959855 221.66126607 82.43359375 232.8671875 C81.44756992 235.20850306 80.44870079 237.5444476 79.4375 239.875 C78.43054056 242.22414553 77.42902902 244.57563553 76.43359375 246.9296875 C75.99072021 247.95304199 75.54784668 248.97639648 75.09155273 250.03076172 C73.67105602 253.89479237 72.52497831 257.23888931 73.62084961 261.30175781 C73.96124268 262.01170898 74.30163574 262.72166016 74.65234375 263.453125 C75.01650391 264.236875 75.38066406 265.020625 75.75585938 265.828125 C76.14580078 266.62734375 76.53574219 267.4265625 76.9375 268.25 C77.6995197 269.8580015 78.45877692 271.46731595 79.21484375 273.078125 C79.55636475 273.78356445 79.89788574 274.48900391 80.24975586 275.21582031 C81 277 81 277 81 279 C92.37042384 269.86243885 102.03626726 258.44306307 111 247 C111.51095215 246.35095703 112.0219043 245.70191406 112.54833984 245.03320312 C125.88971537 229.68637027 125.88971537 229.68637027 132 211 C129.75832877 202.48164932 123.21338533 196.86496781 116.5 191.5625 C106.28953766 183.36891911 100.68219111 174.09252513 99 161 C98.81873023 158.0403267 98.76979772 155.08970792 98.75 152.125 C98.729375 151.36058594 98.70875 150.59617188 98.6875 149.80859375 C98.64952592 144.21691068 99.68792348 140.10465794 102 135 C104.50016793 132.84468282 105.75251213 132.99494923 109.0625 133.0625 C112 134 112 134 113.75 136.125 C115.15664407 139.36028137 116.12922023 142.58386397 117 146 C117.58007812 144.96939453 117.58007812 144.96939453 118.171875 143.91796875 C118.69265625 143.01691406 119.2134375 142.11585938 119.75 141.1875 C120.26046875 140.29417969 120.7709375 139.40085938 121.296875 138.48046875 C123.41745178 135.39201404 125.26483707 133.3761779 129 132.56640625 C132.51476987 132.55954147 134.50221151 132.69647043 137.5625 134.5625 C139 137 139 137 138.9375 140.375 C138.0190789 143.92622825 136.79005204 146.80903767 135 150 C135.85722656 150.35707031 136.71445312 150.71414062 137.59765625 151.08203125 C141.71414194 153.40257599 144.3292215 156.18358885 147.4375 159.6875 C148.01024658 160.31962402 148.58299316 160.95174805 149.1730957 161.60302734 C150.79131431 163.39399395 152.3973279 165.1951266 154 167 C155.01320313 168.12728516 155.01320313 168.12728516 156.046875 169.27734375 C157.12595886 170.49259771 158.19407625 171.71769422 159.25 172.953125 C160.64583391 174.58575217 162.06852182 176.19540879 163.5 177.796875 C172.55938137 188.06153218 175.85645268 196.28118975 175.31640625 209.94921875 C174.40246541 224.18900662 165.77910505 236.75193644 158.4375 248.5625 C158.09261536 249.12016052 157.74773071 249.67782104 157.39239502 250.25238037 C149.15475022 263.564153 140.47185983 276.53394518 131 289 C132.134375 288.835 133.26875 288.67 134.4375 288.5 C150.43762925 286.6012063 165.83802743 290.28703467 178.8203125 300.140625 C181.32951299 302.33521625 183.67806113 304.60905245 186 307 C186.69609375 307.68707031 187.3921875 308.37414062 188.109375 309.08203125 C192.26305025 313.42085094 195.44229407 318.0748074 198.4375 323.25 C198.77990723 323.84063232 199.12231445 324.43126465 199.47509766 325.03979492 C201.30291788 328.33089557 202.5011635 331.26223918 203 335 C199.08630988 333.83647051 195.48966813 332.31152553 191.8125 330.5625 C179.04361951 324.67317961 163.67769308 321.24659389 150 326 C142.91164709 329.28096473 137.03326527 334.28925749 131.02319336 339.18408203 C107.97542989 357.86680401 83.71829979 373.42797238 53 371 C40.16385736 369.31429334 26.97063187 363.18627889 17 355 C17.00999275 355.83540314 17.00999275 355.83540314 17.02018738 356.68768311 C17.08764289 362.59478858 17.13224608 368.50178124 17.16479492 374.40917969 C17.17968859 376.60063128 17.20001031 378.79205414 17.22631836 380.98339844 C17.67846728 419.67316085 7.64343997 447.49786259 -14.13623047 479.26757812 C-33.8780319 508.21049686 -43.14095782 537.38962106 -43.375 572.5 C-43.3830365 573.17446167 -43.391073 573.84892334 -43.39935303 574.54382324 C-43.51123886 586.9009921 -42.89044713 601.43629571 -34 611 C-23.5096298 617.88123347 -13.24861269 619.05695764 -1 618 C2.96403622 617.14673267 6.37521667 615.79855661 10 614 C10.95777344 613.52949219 11.91554688 613.05898438 12.90234375 612.57421875 C18.12153956 609.86303918 22.66969003 606.97920375 27 603 C26.30777344 602.13955078 26.30777344 602.13955078 25.6015625 601.26171875 C10.5184604 581.61791582 1.28118922 559.05932437 4.4609375 533.9453125 C7.40422025 514.08106691 14.54074202 494.19593643 28 479 C28.77730469 478.08347656 28.77730469 478.08347656 29.5703125 477.1484375 C34.42027244 471.82988239 40.48177325 468.00689064 47 465 C47.66 465.33 48.32 465.66 49 466 C48.73445313 466.54527344 48.46890625 467.09054687 48.1953125 467.65234375 C43.25618412 478.19756311 41.2295383 488.12611491 44.984375 499.390625 C48.2087286 507.67473348 52.97668907 514.38274871 58.4375 521.3125 C69.25017397 535.06713826 73.98372561 547.4558947 75 565 C75.83660156 564.60167969 76.67320312 564.20335937 77.53515625 563.79296875 C99.61784779 553.7420427 123.82374115 553.67587424 147.6875 554 C151.712229 554.05361625 155.7367645 554.09327606 159.76171875 554.125 C160.65871994 554.14159668 161.55572113 554.15819336 162.47990417 554.17529297 C172.51295883 554.25275143 181.00879821 552.35565959 189 546 C190.79303953 543.6999313 191.81485525 541.69351079 193 539 C193.33 539 193.66 539 194 539 C192.94438103 559.05676037 181.65672707 578.89720333 169 594 C168.29359375 594.85722656 167.5871875 595.71445312 166.859375 596.59765625 C150.59648644 615.52227657 129.18953455 627.21554547 104.35546875 629.75390625 C103.24816406 629.83511719 102.14085937 629.91632812 101 630 C99.69482422 630.10634766 99.69482422 630.10634766 98.36328125 630.21484375 C81.24199247 630.88679386 64.15431538 626.0978478 48 621 C47.71350586 621.60884033 47.42701172 622.21768066 47.13183594 622.8449707 C38.42413211 639.42454397 14.98392566 649.32936271 -1.875 654.75 C-30.86851145 663.53996776 -63.99209149 664.24645084 -91.35888672 650.13208008 C-109.7391155 640.28051303 -123.52316154 625.86512916 -134 608 C-134.34562988 607.41428223 -134.69125977 606.82856445 -135.04736328 606.22509766 C-146.08494718 587.07459871 -151.1701336 564.73676672 -154 543 C-154.11569336 542.11989258 -154.23138672 541.23978516 -154.35058594 540.33300781 C-161.39265013 483.89201257 -153.1445923 417.85207334 -130.89453125 365.4375 C-130.60476913 364.74889893 -130.31500702 364.06029785 -130.01646423 363.35083008 C-129.36945558 361.85445928 -128.69243059 360.37045899 -127.97679138 358.90567017 C-124.54605299 351.41972955 -124.22199988 344.15147924 -123.953125 336.0234375 C-123.89313266 334.6027677 -123.83156118 333.1821638 -123.76849365 331.7616272 C-123.60818729 328.05671616 -123.46907961 324.35131402 -123.33465576 320.64538574 C-123.19314818 316.85028921 -123.03121415 313.05606746 -122.87109375 309.26171875 C-122.56094443 301.8418463 -122.27322733 294.42133367 -122 287 C-122.99 286.67 -123.98 286.34 -125 286 C-125.0825 284.88625 -125.165 283.7725 -125.25 282.625 C-125.56822859 278.96407698 -125.56822859 278.96407698 -127.9375 277.6875 C-128.618125 277.460625 -129.29875 277.23375 -130 277 C-130.66 276.34 -131.32 275.68 -132 275 C-133.93782866 277.978953 -135.87522851 280.95818464 -137.8125 283.9375 C-138.40200439 284.84395264 -138.99150879 285.75040527 -139.59887695 286.68432617 C-142.85468296 291.69261847 -146.10386927 296.70501661 -149.34033203 301.72583008 C-150.68637775 303.81076172 -152.03793557 305.89203024 -153.390625 307.97265625 C-155.10810579 310.61439615 -156.80320166 313.26862761 -158.484375 315.93359375 C-164.18143187 324.85732233 -170.67281958 332.38139764 -178 340 C-179.24045024 341.3858155 -180.47154398 342.78014349 -181.6875 344.1875 C-185.72557449 348.85132938 -189.86708452 353.42028284 -194 358 C-194.721875 358.804375 -195.44375 359.60875 -196.1875 360.4375 C-200.77776269 365.55236414 -205.40801052 370.62793934 -210.06079102 375.68579102 C-212.51748432 378.36242259 -214.94175638 381.05957101 -217.3125 383.8125 C-245.90513458 416.68712333 -245.90513458 416.68712333 -264 418 C-273.06364927 417.97887261 -281.93015682 417.37989546 -289.625 412.25 C-291 410 -291 410 -291 406.375 C-290 403 -290 403 -288.3046875 401.81640625 C-285.51567927 400.82843554 -283.07892617 400.6865198 -280.125 400.5625 C-275.43454905 400.24178541 -271.98497331 399.69254954 -268 397 C-266.61449803 394.22899606 -266.8122533 392.0665294 -267 389 C-268.60969095 385.9894594 -268.60969095 385.9894594 -270.625 385.3125 C-276.19101063 384.58013018 -281.52790525 384.05260724 -286.46875 387.23046875 C-290.84799464 392.29117748 -291.42792712 400.35451177 -292.80078125 406.703125 C-293.17783203 408.42789063 -293.17783203 408.42789063 -293.5625 410.1875 C-293.77003906 411.23292969 -293.97757813 412.27835937 -294.19140625 413.35546875 C-295.04218749 416.13797549 -295.65403361 417.31542655 -298 419 C-302.22460345 419.54763378 -304.27431473 419.473273 -307.875 417.125 C-310.77930054 414.22069946 -310.99007415 413.57569904 -311.0625 409.375 C-311.041875 408.26125 -311.02125 407.1475 -311 406 C-311.969375 406.350625 -312.93875 406.70125 -313.9375 407.0625 C-318.41534671 408.32758271 -322.50779221 408.17942135 -327 407 C-329.5625 405.375 -329.5625 405.375 -331 403 C-331.74017743 399.50097944 -331.78347285 397.25355655 -329.84765625 394.15625 C-324.564379 387.85248644 -318.17002864 382.42173195 -312 377 C-311.05382812 376.16597656 -310.10765625 375.33195312 -309.1328125 374.47265625 C-296.30709133 363.55444319 -284.66567608 360.77850681 -268.171875 360.140625 C-258.84447389 359.51532437 -252.77797271 355.27519173 -246.375 348.625 C-245.62605469 347.84769531 -244.87710938 347.07039063 -244.10546875 346.26953125 C-240.98926139 342.91050254 -237.97171041 339.48727031 -235 336 C-234.07212718 334.9240369 -233.14369443 333.84855654 -232.21484375 332.7734375 C-226.88755425 326.597712 -221.58576281 320.40461375 -216.47802734 314.04492188 C-214.7456591 311.91624239 -212.99674054 309.82407894 -211.20800781 307.74462891 C-203.79557209 298.99630932 -198.73942666 290.31883774 -194.25 279.8125 C-193.58785716 278.30946501 -192.92358015 276.80736864 -192.25732422 275.30615234 C-190.86848431 272.16791189 -189.49234504 269.02455212 -188.12597656 265.87646484 C-185.94857495 260.86722851 -183.72441332 255.87953231 -181.4921875 250.89453125 C-178.69645062 244.64471716 -175.9049256 238.39314757 -173.1328125 232.1328125 C-172.84397186 231.48226395 -172.55513123 230.83171539 -172.25753784 230.16145325 C-171.49810464 228.4440124 -170.74864811 226.72216952 -170 225 C-169.58903076 224.08718262 -169.17806152 223.17436523 -168.75463867 222.23388672 C-167.63286611 218.91320768 -168.78426047 217.14451436 -170.1875 214 C-176.74248727 197.93490824 -179.83117604 177.58212894 -173 161 C-172.6596875 160.14148438 -172.319375 159.28296875 -171.96875 158.3984375 C-168.37318285 149.96829019 -163.62108166 142.1072984 -158.95458984 134.23681641 C-147.07987129 114.20696848 -141.38266722 94.8542701 -139.578125 71.73046875 C-137.43143845 44.50518162 -130.28413217 18.76682552 -109.5 -0.3125 C-78.50047036 -26.46502415 -30.76163615 -26.63894265 0 0 Z " fill="#DCB791" transform="translate(415,43)"/>
<path d="M0 0 C0.495 0.66 0.99 1.32 1.5 2 C14.08912749 17.10695299 29.42985527 23.78879304 48.8515625 25.68359375 C75.68645924 27.8956766 101.12290159 21.85618628 126.17358398 12.67895508 C131.15301931 10.87481185 135.71956418 9.49595254 141 9 C142.22803472 16.72473452 142.24334618 24.44224459 142.25 32.25 C142.25067474 32.96075684 142.25134949 33.67151367 142.25204468 34.40380859 C142.19855702 69.95560779 130.78933243 96.20242459 110.86376953 125.26757812 C91.1219681 154.21049686 81.85904218 183.38962106 81.625 218.5 C81.6169635 219.17446167 81.608927 219.84892334 81.60064697 220.54382324 C81.48876114 232.9009921 82.10955287 247.43629571 91 257 C101.4903702 263.88123347 111.75138731 265.05695764 124 264 C127.96403622 263.14673267 131.37521667 261.79855661 135 260 C135.95777344 259.52949219 136.91554688 259.05898438 137.90234375 258.57421875 C143.12153956 255.86303918 147.66969003 252.97920375 152 249 C151.53851563 248.42636719 151.07703125 247.85273437 150.6015625 247.26171875 C135.5184604 227.61791582 126.28118922 205.05932437 129.4609375 179.9453125 C132.40422025 160.08106691 139.54074202 140.19593643 153 125 C153.51820313 124.38898438 154.03640625 123.77796875 154.5703125 123.1484375 C159.42027244 117.82988239 165.48177325 114.00689064 172 111 C172.66 111.33 173.32 111.66 174 112 C173.73445312 112.54527344 173.46890625 113.09054687 173.1953125 113.65234375 C168.25618412 124.19756311 166.2295383 134.12611491 169.984375 145.390625 C173.2087286 153.67473348 177.97668907 160.38274871 183.4375 167.3125 C194.25017397 181.06713826 198.98372561 193.4558947 200 211 C200.83660156 210.60167969 201.67320312 210.20335937 202.53515625 209.79296875 C224.61784779 199.7420427 248.82374115 199.67587424 272.6875 200 C276.712229 200.05361625 280.7367645 200.09327606 284.76171875 200.125 C285.65871994 200.14159668 286.55572113 200.15819336 287.47990417 200.17529297 C297.51295883 200.25275143 306.00879821 198.35565959 314 192 C315.79303953 189.6999313 316.81485525 187.69351079 318 185 C318.33 185 318.66 185 319 185 C317.94438103 205.05676037 306.65672707 224.89720333 294 240 C292.94039062 241.28583984 292.94039062 241.28583984 291.859375 242.59765625 C275.59648644 261.52227657 254.18953455 273.21554547 229.35546875 275.75390625 C228.24816406 275.83511719 227.14085937 275.91632813 226 276 C225.12988281 276.07089844 224.25976562 276.14179687 223.36328125 276.21484375 C206.24199247 276.88679386 189.15431538 272.0978478 173 267 C172.71350586 267.60884033 172.42701172 268.21768066 172.13183594 268.8449707 C163.42413211 285.42454397 139.98392566 295.32936271 123.125 300.75 C94.13148855 309.53996776 61.00790851 310.24645084 33.64111328 296.13208008 C15.2608845 286.28051303 1.47683846 271.86512916 -9 254 C-9.34562988 253.41428223 -9.69125977 252.82856445 -10.04736328 252.22509766 C-21.08494718 233.07459871 -26.1701336 210.73676672 -29 189 C-29.11569336 188.11989258 -29.23138672 187.23978516 -29.35058594 186.33300781 C-36.49972041 129.03386181 -30.18545192 50.53218669 0 0 Z " fill="#BF7FF6" transform="translate(290,397)"/>
<path d="M0 0 C0.82628906 0.639375 1.65257812 1.27875 2.50390625 1.9375 C19.0380042 15.59947765 27.70436647 40.22222932 31.6875 60.5 C33.17638204 77.17547883 29.26862527 92.26228085 23.9375 107.875 C16.33789566 129.74861399 16.33789566 129.74861399 18 152.5 C22.7158339 161.91923225 32.30593307 165.09709962 41.625 168.4375 C58.9361607 174.88855646 75.42114394 181.60637018 84.00390625 199.0390625 C89.28007754 211.8344151 86.14613938 224.05393364 81.01171875 236.40820312 C80.51285156 237.57287109 80.01398438 238.73753906 79.5 239.9375 C79.00113281 241.12923828 78.50226563 242.32097656 77.98828125 243.54882812 C77.06638279 245.74976802 76.13930231 247.9485507 75.20507812 250.14428711 C74.10498144 252.75122205 73.04135177 255.36913711 72 258 C69.67796914 255.11369427 68.11492073 252.31243038 66.65234375 248.9140625 C66.21696289 247.91117187 65.78158203 246.90828125 65.33300781 245.875 C64.87249023 244.8025 64.41197266 243.73 63.9375 242.625 C62.9525324 240.3668779 61.96684046 238.10907162 60.98046875 235.8515625 C59.52513704 232.50878115 58.07153524 229.16529995 56.62353516 225.81933594 C55.3444805 222.87406352 54.04904206 219.93650071 52.75 217 C52.37480225 216.12424316 51.99960449 215.24848633 51.61303711 214.34619141 C46.75905388 203.44966578 40.45813865 196.66596285 30 191 C29.03320312 190.47535156 28.06640625 189.95070312 27.0703125 189.41015625 C8.83858001 180.29429001 -11.94781058 177.88887878 -32 176 C-33.52643172 158.87004405 -33.52643172 158.87004405 -30.1953125 154.7890625 C-27.75 153.5 -27.75 153.5 -24.99609375 152.359375 C-16.1262316 148.33497862 -7.20951166 138.63126761 -3 130 C-1.28247754 124.73365354 -0.05394457 119.43692941 1 114 C1.17805176 113.16670166 1.35610352 112.33340332 1.53955078 111.47485352 C2.94466884 104.53716104 3.30378032 97.88013099 3.25 90.8125 C3.25773438 89.78447266 3.26546875 88.75644531 3.2734375 87.69726562 C3.24577516 76.12302885 3.24577516 76.12302885 -2.3359375 66.2421875 C-5.7707059 63.67820546 -9.89191265 62.9620481 -14 62 C-22.52908037 59.77929474 -30.11514315 56.97396785 -38 53 C-41.43077162 51.36072107 -44.87250341 49.74481038 -48.3125 48.125 C-49.97559764 47.33664852 -51.63838645 46.54764499 -53.30078125 45.7578125 C-54.01403564 45.4189502 -54.72729004 45.08008789 -55.4621582 44.73095703 C-55.969646 44.48974121 -56.47713379 44.24852539 -57 44 C-57 43.34 -57 42.68 -57 42 C-58.02673828 41.66355469 -58.02673828 41.66355469 -59.07421875 41.3203125 C-62.76952662 39.65273699 -65.65484933 37.38844769 -68.8125 34.875 C-69.40998047 34.40707031 -70.00746094 33.93914062 -70.62304688 33.45703125 C-72.08616792 32.30994435 -73.54366297 31.15568766 -75 30 C-75.49628906 30.71285156 -75.99257813 31.42570312 -76.50390625 32.16015625 C-77.18324219 33.11792969 -77.86257813 34.07570312 -78.5625 35.0625 C-79.55443359 36.47208984 -79.55443359 36.47208984 -80.56640625 37.91015625 C-85.78584411 44.53708297 -91.88397129 49.6674583 -98.625 54.6875 C-100.79133755 56.31793411 -102.95681712 57.9491155 -105.11425781 59.59130859 C-106.67635012 60.75822633 -108.28247662 61.86593098 -109.8984375 62.95703125 C-113.56072894 66.51721419 -113.93482443 70.95123013 -114.24291992 75.90893555 C-114.24928212 77.31818836 -114.24465685 78.72752299 -114.23046875 80.13671875 C-114.23001053 80.89741165 -114.22955231 81.65810455 -114.2290802 82.44184875 C-114.22607508 84.04450041 -114.21824136 85.6471496 -114.20581055 87.24975586 C-114.18768134 89.66335794 -114.18530051 92.07657157 -114.18554688 94.49023438 C-114.14088497 115.75929998 -111.45116575 129.59529769 -95.73828125 145.25390625 C-91.44298029 149.2336712 -91.44298029 149.2336712 -86.43359375 152.19140625 C-83.53272001 153.56693793 -81.94134814 154.41153582 -80 157 C-78.86517356 162.91485295 -79.49425477 169.04344503 -80 175 C-82.59138642 176.29569321 -84.79676723 176.35127526 -87.6875 176.61328125 C-122.1302379 179.06588004 -122.1302379 179.06588004 -151 196 C-154.38512644 200.4168756 -157.21037871 205.19360405 -160 210 C-161.14385277 211.95949083 -162.28942029 213.91798277 -163.4375 215.875 C-163.88996094 216.67679688 -164.34242188 217.47859375 -164.80859375 218.3046875 C-165.20175781 218.86414063 -165.59492188 219.42359375 -166 220 C-166.66 220 -167.32 220 -168 220 C-175.49385647 201.90218852 -180.83041664 180.00770491 -173 161 C-172.48953125 159.71222656 -172.48953125 159.71222656 -171.96875 158.3984375 C-168.37318285 149.96829019 -163.62108166 142.1072984 -158.95458984 134.23681641 C-147.07987129 114.20696848 -141.38266722 94.8542701 -139.578125 71.73046875 C-137.43143845 44.50518162 -130.28413217 18.76682552 -109.5 -0.3125 C-78.50047036 -26.46502415 -30.76163615 -26.63894265 0 0 Z " fill="#BA50C3" transform="translate(415,43)"/>
<path d="M0 0 C0.44988281 0.35191406 0.89976562 0.70382813 1.36328125 1.06640625 C6.34295642 4.88848158 11.50002453 8.24186262 16.875 11.484375 C17.57625 11.98453125 18.2775 12.4846875 19 13 C19 13.66 19 14.32 19 15 C19.67546875 15.09023437 20.3509375 15.18046875 21.046875 15.2734375 C24.75300226 16.18526246 27.89862994 17.85682787 31.25 19.625 C42.20254906 25.22868872 53.1655932 30.23812981 65.1875 33 C70.43483949 34.31462009 73.70539531 35.49507995 77.01953125 39.828125 C83.38973982 53.93902527 80.79089818 72.38366634 77.75 87 C77.54560303 87.98355469 77.34120605 88.96710938 77.13061523 89.98046875 C73.68941124 105.06092447 63.98688542 116.70225688 51 125 C38.86690305 132.21956949 25.26714339 137.21457195 11 134 C-9.02579205 128.43600267 -24.57480263 115.79587831 -35 98 C-40.57698623 87.59652685 -39.21194481 74.67188809 -39.24023438 63.15332031 C-39.25004105 60.73989658 -39.28122283 58.32729142 -39.3125 55.9140625 C-39.31902373 54.35417161 -39.32427667 52.79427478 -39.328125 51.234375 C-39.3404718 50.52585388 -39.3528186 49.81733276 -39.36553955 49.08734131 C-39.33924741 43.11761448 -38.25199489 37.51988794 -34.18164062 32.96533203 C-33.51326172 32.48435059 -32.84488281 32.00336914 -32.15625 31.5078125 C-31.40956055 30.95311279 -30.66287109 30.39841309 -29.89355469 29.8269043 C-29.10368164 29.26527588 -28.31380859 28.70364746 -27.5 28.125 C-25.86745327 26.9080787 -24.23724005 25.68802063 -22.609375 24.46484375 C-21.81853516 23.87558105 -21.02769531 23.28631836 -20.21289062 22.67919922 C-11.84545488 16.32977037 -4.74209157 9.48418315 0 0 Z " fill="#DFB994" transform="translate(339,72)"/>
<path d="M0 0 C2.51761894 1.77774725 4.02873054 3.57382221 6 6 C6.99 5.67 7.98 5.34 9 5 C13.93328449 4.48994855 17.758188 4.23970694 22.0625 6.875 C24.86738097 9.95132106 25.12054262 11.56201658 25.0625 15.625 C25.05347656 16.44226563 25.04445313 17.25953125 25.03515625 18.1015625 C25.02355469 18.72804688 25.01195312 19.35453125 25 20 C25.86625 19.855625 26.7325 19.71125 27.625 19.5625 C31.32853107 20.04258736 31.92610643 20.45034686 34.375 23.0625 C36.51257064 25.83965871 37.0052795 27.03402345 37.5625 30.625 C36.8477228 34.91366319 35.56897003 37.65516855 32.25 40.5 C31.8375 40.995 31.425 41.49 31 42 C31.45894124 45.76859806 32.70664168 48.8470014 34.3359375 52.25390625 C34.81764404 53.26356445 35.29935059 54.27322266 35.7956543 55.31347656 C36.31683838 56.3856543 36.83802246 57.45783203 37.375 58.5625 C37.91229736 59.67206055 38.44959473 60.78162109 39.00317383 61.92480469 C46.31944337 76.89853365 53.9135443 91.67971881 64 105 C64.88945312 106.18335938 64.88945312 106.18335938 65.796875 107.390625 C70.09673045 112.71613404 75.22519308 117.38869254 82.2578125 118.2890625 C94.78979429 117.72141176 104.0899471 105.53116001 112 97 C115.15122729 93.44037365 118.10132259 89.7673208 121 86 C121.52013672 85.32437012 122.04027344 84.64874023 122.57617188 83.95263672 C125.42288 80.25046211 128.2582691 76.54001386 131.08203125 72.8203125 C131.58710205 72.161521 132.09217285 71.50272949 132.61254883 70.82397461 C133.80471057 69.2567319 134.9678216 67.66746621 136.125 66.07421875 C139.59540809 62.2350798 144.16669418 62.29601703 149.09375 61.78125 C163.73137319 61.12583404 178.44166483 66.81251114 189.375 76.375 C190.93822524 77.89480231 192.48107009 79.43592707 194 81 C194.69609375 81.68707031 195.3921875 82.37414062 196.109375 83.08203125 C200.26305025 87.42085094 203.44229407 92.0748074 206.4375 97.25 C206.77990723 97.84063232 207.12231445 98.43126465 207.47509766 99.03979492 C209.30291788 102.33089557 210.5011635 105.26223918 211 109 C207.08630988 107.83647051 203.48966813 106.31152553 199.8125 104.5625 C187.04361951 98.67317961 171.67769308 95.24659389 158 100 C150.91164709 103.28096473 145.03326527 108.28925749 139.02319336 113.18408203 C115.97542989 131.86680401 91.71829979 147.42797238 61 145 C49.25634699 143.45776456 32.00399181 137.43395329 24 128 C23.39222547 125.08842372 23.17841337 122.99424219 23.22705078 120.08862305 C23.21110619 118.91709938 23.21110619 118.91709938 23.19483948 117.72190857 C23.16682823 115.15118631 23.18083568 112.58252325 23.1953125 110.01171875 C23.18406044 108.22522695 23.17017895 106.43874993 23.15377808 104.65229797 C23.11773755 99.95858919 23.11736681 95.26553172 23.12445068 90.57171631 C23.12536352 85.77881211 23.09250611 80.98615209 23.0625 76.19335938 C23.00863551 66.7955047 22.99245621 57.39799199 23 48 C21.57150739 49.0042181 20.1577443 50.02939733 18.75 51.0625 C17.96109375 51.63097656 17.1721875 52.19945312 16.359375 52.78515625 C13.28791152 55.45138216 13.28791152 55.45138216 10 62 C1.75 62 -6.5 62 -15 62 C-15.66 60.02 -16.32 58.04 -17 56 C-19.16932169 54.81181932 -19.16932169 54.81181932 -22 54 C-24.91195381 52.49660552 -27.73160044 50.8374406 -30.5625 49.1875 C-31.31724609 48.76146484 -32.07199219 48.33542969 -32.84960938 47.89648438 C-37.65948893 45.09531223 -41.80359915 42.45191066 -43.71484375 36.9375 C-44.11326003 33.47057941 -44.19747729 31.46770936 -42.8125 28.1875 C-40.98528405 25.98223938 -39.48254021 24.42934133 -37 23 C-35.68 23 -34.36 23 -33 23 C-33.33 22.34 -33.66 21.68 -34 21 C-34.60121564 15.7093024 -33.21273363 13.15765529 -30 9 C-28 7 -28 7 -25.9765625 6.734375 C-24.81253906 6.74210937 -24.81253906 6.74210937 -23.625 6.75 C-22.46871094 6.74226563 -22.46871094 6.74226563 -21.2890625 6.734375 C-18.8007639 7.02311955 -17.15765802 7.75860771 -15 9 C-14.9071875 7.88625 -14.9071875 7.88625 -14.8125 6.75 C-12.7664855 -0.17497214 -6.4073803 -1.55126049 0 0 Z " fill="#B346BC" transform="translate(407,269)"/>
<path d="M0 0 C3.82209946 2.38692377 6.56170311 4.68510932 8 9 C8.33 8.67 8.66 8.34 9 8 C10.92578125 7.83203125 10.92578125 7.83203125 13.3125 7.8125 C14.09238281 7.79832031 14.87226563 7.78414063 15.67578125 7.76953125 C19.3765477 8.13649801 21.39782045 9.26878198 23.75 12.125 C25.44761208 16.02950778 25.27835902 18.75502499 25 23 C24.67 23.66 24.34 24.32 24 25 C24.7425 25.0825 25.485 25.165 26.25 25.25 C29.56604529 26.15437599 30.83531391 27.3714526 33 30 C34.34562738 34.03688213 34.73686018 37.98514794 33.25 42.05078125 C31.71270741 44.44799689 30.28368743 45.34262357 27.8125 46.75 C26.93078125 47.25917969 26.0490625 47.76835937 25.140625 48.29296875 C22.80963649 49.55993639 20.4737937 50.78704121 18.109375 51.98828125 C17.44059326 52.33213867 16.77181152 52.67599609 16.08276367 53.03027344 C14.75878747 53.70674128 13.42831641 54.37067788 12.09106445 55.02050781 C7.95635791 57.12757112 6.24203353 59.02022012 4 63 C0.72466739 63.39529876 -1.74337902 63.31597228 -5 63 C-6.01441162 62.92386475 -6.01441162 62.92386475 -7.04931641 62.84619141 C-9.34821738 62.67219088 -11.64217195 62.46586383 -13.9375 62.25 C-15.07469482 62.15803345 -15.07469482 62.15803345 -16.23486328 62.06420898 C-21.60578356 61.47920336 -21.60578356 61.47920336 -23.50390625 59.171875 C-24 57 -24 57 -24 53 C-24.54785156 52.77054687 -25.09570312 52.54109375 -25.66015625 52.3046875 C-28.67439878 50.62395795 -30.91777956 48.48046682 -33.4375 46.125 C-36.14341402 43.60349458 -38.81044847 41.14848656 -41.72265625 38.8671875 C-44.22712094 36.8137842 -45.80870307 35.18782047 -46.3359375 31.9140625 C-46.40463693 27.88827601 -46.35428083 25.59468568 -44.25 22.0625 C-40.63697567 18.75056103 -38.97034428 18 -34 18 C-34.061875 16.39125 -34.061875 16.39125 -34.125 14.75 C-33.95245642 9.57369255 -33.95245642 9.57369255 -32 7 C-29.43978196 4.74456983 -27.47525757 3.07092584 -23.96875 2.90234375 C-20.32939679 3.28936452 -17.11286226 4.05446109 -14 6 C-13.401875 5.195625 -12.80375 4.39125 -12.1875 3.5625 C-8.6937089 -0.53022672 -5.17581588 -0.60384519 0 0 Z " fill="#CF7BDD" transform="translate(313,269)"/>
<path d="M0 0 C2.51761894 1.77774725 4.02873054 3.57382221 6 6 C6.99 5.67 7.98 5.34 9 5 C13.93328449 4.48994855 17.758188 4.23970694 22.0625 6.875 C24.86738097 9.95132106 25.12054262 11.56201658 25.0625 15.625 C25.05347656 16.44226563 25.04445313 17.25953125 25.03515625 18.1015625 C25.02355469 18.72804688 25.01195312 19.35453125 25 20 C25.86625 19.855625 26.7325 19.71125 27.625 19.5625 C31.32853107 20.04258736 31.92610643 20.45034686 34.375 23.0625 C36.51257064 25.83965871 37.0052795 27.03402345 37.5625 30.625 C36.55945825 36.64325049 33.44921607 39.97451879 29 44 C27.33504684 45.00285032 25.6681822 46.00253023 24 47 C22.28668149 48.21437059 20.59917146 49.46586441 18.9375 50.75 C18.10089844 51.38421875 17.26429688 52.0184375 16.40234375 52.671875 C13.31169232 55.45102638 13.31169232 55.45102638 10 62 C1.75 62 -6.5 62 -15 62 C-15.66 60.02 -16.32 58.04 -17 56 C-19.16932169 54.81181932 -19.16932169 54.81181932 -22 54 C-24.91195381 52.49660552 -27.73160044 50.8374406 -30.5625 49.1875 C-31.31724609 48.76146484 -32.07199219 48.33542969 -32.84960938 47.89648438 C-37.65948893 45.09531223 -41.80359915 42.45191066 -43.71484375 36.9375 C-44.11326003 33.47057941 -44.19747729 31.46770936 -42.8125 28.1875 C-40.98528405 25.98223938 -39.48254021 24.42934133 -37 23 C-35.68 23 -34.36 23 -33 23 C-33.33 22.34 -33.66 21.68 -34 21 C-34.60121564 15.7093024 -33.21273363 13.15765529 -30 9 C-28 7 -28 7 -25.9765625 6.734375 C-24.81253906 6.74210937 -24.81253906 6.74210937 -23.625 6.75 C-22.46871094 6.74226563 -22.46871094 6.74226563 -21.2890625 6.734375 C-18.8007639 7.02311955 -17.15765802 7.75860771 -15 9 C-14.9071875 7.88625 -14.9071875 7.88625 -14.8125 6.75 C-12.7664855 -0.17497214 -6.4073803 -1.55126049 0 0 Z " fill="#CF7BDD" transform="translate(407,269)"/>
<path d="M0 0 C2.5625 1.5625 2.5625 1.5625 4 4 C4.11575516 10.01926807 1.56632681 14.35983445 -2 19 C-2.94875 19.845625 -3.8975 20.69125 -4.875 21.5625 C-7.34272813 23.87786932 -7.34272813 23.87786932 -7.125 27.3125 C-5.9363025 31.20878625 -4.33007426 33.93083665 -1.9609375 37.203125 C-1.64382813 37.79609375 -1.32671875 38.3890625 -1 39 C-1.33 39.99 -1.66 40.98 -2 42 C-8.22690125 40.65694287 -11.47871381 38.7352388 -15.16015625 33.28125 C-18.26087731 27.85776657 -19.62787283 22.2374209 -19 16 C-15.61322592 6.1378093 -11.1733073 -1.41883267 0 0 Z " fill="#C48E6A" transform="translate(550,176)"/>
<path d="M0 0 C3.69452101 0.06406684 5.00910827 0.26578057 8.25 2.25 C11.44195075 5.75084921 11.58312414 8.33878667 11.52246094 12.94091797 C10.94383884 17.1456281 8.75403504 20.05566593 6.3125 23.4375 C5.30292053 24.90633915 4.29515321 26.37642526 3.2890625 27.84765625 C2.77375977 28.59031738 2.25845703 29.33297852 1.72753906 30.09814453 C-1.20877047 34.43930223 -3.87650915 38.95477479 -6.55029297 43.46118164 C-9.48338149 48.26529383 -9.48338149 48.26529383 -12.8125 49.375 C-12.31507049 46.61322993 -11.69444492 43.98787772 -10.875 41.30078125 C-7.89911814 31.18059478 -7.28117339 21.52306485 -7.140625 10.9855957 C-7.12257813 9.89980225 -7.10453125 8.81400879 -7.0859375 7.6953125 C-7.07997559 6.71836426 -7.07401367 5.74141602 -7.06787109 4.73486328 C-6.5729504 0.16134185 -4.0070583 0.06007584 0 0 Z " fill="#D17DDF" transform="translate(420.8125,273.625)"/>
<path d="M0 0 C2.72693803 0.38956258 5.11215134 1.04287181 7.6875 2.02734375 C11.45689632 3.13415942 14.92258424 3.30183469 18.8125 3.25 C19.86981323 3.24419922 19.86981323 3.24419922 20.94848633 3.23828125 C26.25430042 3.15036994 30.89140438 2.33995951 36 1 C39.0625 0.875 39.0625 0.875 41 1 C41.66 2.32 42.32 3.64 43 5 C39.12772239 11.16044164 32.69264059 13.7691198 26 16 C16.08420258 17.38506377 9.18936912 14.50278472 1 9 C-0.88671875 7.43359375 -0.88671875 7.43359375 -2 6 C-1.57894737 1.57894737 -1.57894737 1.57894737 0 0 Z " fill="#6E4D42" transform="translate(339,166)"/>
<path d="M0 0 C0.66 0.33 1.32 0.66 2 1 C1.23945313 1.56460937 0.47890625 2.12921875 -0.3046875 2.7109375 C-4.52134838 6.92759838 -4.98287732 12.99733405 -6.125 18.625 C-6.59689595 20.89010058 -7.07825464 23.15325612 -7.5703125 25.4140625 C-7.77414551 26.4138916 -7.97797852 27.4137207 -8.18798828 28.44384766 C-9.0517953 31.16304773 -9.70691829 32.33387348 -12 34 C-16.22460345 34.54763378 -18.27431473 34.473273 -21.875 32.125 C-24.63118425 29.36881575 -24.94487561 28.26643454 -25.75 24.375 C-25.73046875 22.20703125 -25.73046875 22.20703125 -25 20 C-22.51516783 17.68778871 -19.87051202 15.93747308 -17.02734375 14.0859375 C-13.21155585 11.45673655 -10.21672649 8.360172 -7.0703125 4.98046875 C-4.85181403 2.85824474 -2.74874565 1.36530106 0 0 Z " fill="#C48E6A" transform="translate(129,428)"/>
<path d="M0 0 C4.45927983 3.60989319 5.83430224 8.48931408 6.43359375 13.953125 C6.45627276 15.3852377 6.45657011 16.8178347 6.4375 18.25 C6.43427734 19.02504883 6.43105469 19.80009766 6.42773438 20.59863281 C6.27095556 27.33201276 4.97885452 33.60888747 3.43457031 40.14208984 C1.44854016 48.78473282 1.02102397 57.27963406 3 66 C-1.90306306 61.61304884 -3.68558051 58.16613118 -4.3359375 51.6171875 C-4.42666976 42.92503708 -3.35083502 35.15184895 -1.43212891 26.68017578 C0.47606544 17.77240109 0.36909333 9.06329179 0 0 Z " fill="#9940AA" transform="translate(444,555)"/>
<path d="M0 0 C0.226875 0.515625 0.45375 1.03125 0.6875 1.5625 C4.79152502 9.18426075 8.65682765 13.23082741 17 16 C18.82700259 16.21080799 20.66264601 16.35682298 22.5 16.4375 C27.92374146 16.68333531 31.26980237 18.50469827 35.7109375 21.52734375 C40.61269243 24.68086185 45.06546196 25.36102122 50.8125 25.625 C51.85180664 25.68300781 51.85180664 25.68300781 52.91210938 25.7421875 C54.60767015 25.83573568 56.30379712 25.91892364 58 26 C54.80118428 29.4194237 52.87109433 30.82300459 48.109375 31.2734375 C37.02308609 31.60860437 37.02308609 31.60860437 32.3671875 27.578125 C30.06573165 24.92158739 28.54635881 22.15457197 27 19 C26.030625 19.33 25.06125 19.66 24.0625 20 C18.73911797 21.50091299 13.43569617 21.99642116 8.25 19.875 C4.45761114 16.71467595 -0.65314676 12.02173838 -1.23046875 6.9921875 C-1.11111111 1.11111111 -1.11111111 1.11111111 0 0 Z " fill="#9A3EA5" transform="translate(269,526)"/>
<path d="M0 0 C2.60152308 1.62380781 4.38627028 3.3905647 6 6 C6.62686471 9.97014316 6.37664689 12.1525445 4.75 15.8125 C1.92582002 19.34272497 0.01662074 19.85212789 -4.4375 20.5 C-8 20 -8 20 -10.9375 17.5625 C-13.30911187 14.22643264 -13.79286957 11.1702441 -13.546875 7.125 C-13 5 -13 5 -10.4375 1.9375 C-6.4025618 -0.33673789 -4.5481905 -0.89339456 0 0 Z " fill="#61443A" transform="translate(396,123)"/>
<path d="M0 0 C2.90238812 1.57764665 5.040591 3.33302664 7 6 C7.94965106 9.22203039 7.93067948 11.77522523 7 15 C4.4085135 18.17457096 2.92564305 19.54580349 -1.00390625 20.47265625 C-4.74137982 20.74924348 -6.87670385 20.07962876 -10 18.0625 C-12.33404981 14.48848623 -12.72378951 12.35230332 -12.5 8.15625 C-11.70000747 4.70628222 -9.74407005 3.09072004 -7 1 C-4.28253006 -0.35873497 -3.03911692 -0.47275152 0 0 Z " fill="#61443A" transform="translate(330,122)"/>
<path d="M0 0 C0 0.66 0 1.32 0 2 C1.32 2.66 2.64 3.32 4 4 C3.67 5.65 3.34 7.3 3 9 C2.45472656 8.855625 1.90945313 8.71125 1.34765625 8.5625 C-7.34886262 6.42181843 -15.17448782 6.87930004 -24 8 C-24.33 7.01 -24.66 6.02 -25 5 C-17.81065161 -3.2786436 -9.77253446 -2.58100797 0 0 Z " fill="#AD8933" transform="translate(338,110)"/>
<path d="M0 0 C2.40749938 0.93193524 4.78387591 1.89948641 7.125 2.98828125 C17.97725894 8.02944883 26.82985398 7.8454601 38 4 C36.66048907 7.12552551 35.36737488 8.77535949 32.5625 10.6875 C31.96566406 11.10386719 31.36882812 11.52023437 30.75390625 11.94921875 C25.89541939 14.85998259 20.46659126 14.51741399 15 14 C8.37111041 12.19629867 3.84072978 7.54505362 0 2 C0 1.34 0 0.68 0 0 Z " fill="#9940AC" transform="translate(294,589)"/>
<path d="M0 0 C0.66 0.66 1.32 1.32 2 2 C1.625 4.125 1.625 4.125 1 6 C0.113125 5.835 -0.77375 5.67 -1.6875 5.5 C-9.6918379 4.35885203 -18.05559457 4.52197108 -26 6 C-26.33 4.68 -26.66 3.36 -27 2 C-18.6216836 -5.42623499 -9.64058325 -6.33457988 0 0 Z " fill="#AC8832" transform="translate(405,113)"/>
<path d="M0 0 C2.50181751 1.84916947 2.99528936 2.97901626 3.6875 6.0625 C4.76229902 19.60496765 2.96323178 29.30891631 -6 40 C-6.99 40.495 -6.99 40.495 -8 41 C-6.94661566 35.66645525 -5.8675219 30.3392146 -4.74609375 25.01953125 C-4.53146484 24.00052734 -4.31683594 22.98152344 -4.09570312 21.93164062 C-3.65436694 19.84020477 -3.21164275 17.74906136 -2.76757812 15.65820312 C-1.673053 10.45011528 -0.66478773 5.28095421 0 0 Z " fill="#993FA6" transform="translate(463,595)"/>
<path d="M0 0 C-6.57085002 5.02997683 -13.58555297 9.19450421 -20.75 13.3125 C-21.66096436 13.84004883 -22.57192871 14.36759766 -23.51049805 14.91113281 C-27.91914146 17.4201892 -32.07119594 19.65355518 -37 21 C-32.59167717 10.61230313 -20.82780943 5.12510907 -11 1 C-7.01340645 -0.41381476 -4.14407677 -1.38135892 0 0 Z " fill="#993EA4" transform="translate(514,625)"/>
<path d="M0 0 C0.4125 0.37511719 0.825 0.75023437 1.25 1.13671875 C9.34648827 8.31150858 16.79580762 13.11897011 27.8125 13.625 C28.85180664 13.68300781 28.85180664 13.68300781 29.91210938 13.7421875 C31.60767015 13.83573568 33.30379712 13.91892364 35 14 C30.86882701 18.38336669 26.5172491 19.14370365 20.625 19.4375 C14.88715071 19.30514798 11.24256744 17.84424779 7 14 C2.9893189 9.73536748 0.30142641 6.02852824 0 0 Z " fill="#9A3EA6" transform="translate(273,562)"/>
<path d="M0 0 C3.83389204 1.43770951 7.41563869 3.19830545 11.03515625 5.09765625 C14.38636486 6.63668048 17.43820092 7.12546817 21.109375 7.09765625 C22.24052734 7.09282227 22.24052734 7.09282227 23.39453125 7.08789062 C24.17183594 7.07951172 24.94914062 7.07113281 25.75 7.0625 C26.93916016 7.05573242 26.93916016 7.05573242 28.15234375 7.04882812 C30.10159508 7.03708565 32.05080738 7.01915146 34 7 C34 7.66 34 8.32 34 9 C29.82759787 13.15979668 25.27638246 14.40981462 19.5 14.625 C13.48563414 14.36744035 9.39292876 13.16499378 5 9 C0 3.28921569 0 3.28921569 0 0 Z " fill="#9940AC" transform="translate(314,575)"/>
<path d="M0 0 C3.03278067 1.51639033 3.61513595 3.98942599 5 7 C5.33 7.99 5.66 8.98 6 10 C7.82028557 11.0904124 7.82028557 11.0904124 10 12 C10.69996094 12.41378906 11.39992188 12.82757813 12.12109375 13.25390625 C18.9969545 17.1382458 25.16925916 17.86498723 33 18 C30.22449902 21.03983441 28.21987273 21.9163148 24.0390625 22.203125 C22.34910156 22.22632813 22.34910156 22.22632813 20.625 22.25 C19.50351562 22.27578125 18.38203125 22.3015625 17.2265625 22.328125 C13.66085502 21.96551068 11.89172887 21.05689931 9 19 C8.154375 18.401875 7.30875 17.80375 6.4375 17.1875 C3.01289164 14.11413352 0.24433038 11.36961682 -0.24609375 6.61328125 C-0.24957812 4.3937387 -0.17695443 2.21193038 0 0 Z " fill="#9B3EA3" transform="translate(274,476)"/>
<path d="M0 0 C3.55038751 1.70768079 6.79398379 3.74198184 10.09765625 5.87890625 C13.42273949 7.83845222 16.11433461 8.12051918 19.88671875 8.09765625 C20.82451172 8.09443359 21.76230469 8.09121094 22.72851562 8.08789062 C23.70498047 8.07951172 24.68144531 8.07113281 25.6875 8.0625 C26.67556641 8.05798828 27.66363281 8.05347656 28.68164062 8.04882812 C31.12115474 8.03704303 33.56054689 8.02059011 36 8 C31.06504571 13.15878591 26.69230581 15.13747322 19.625 15.5625 C12.62757329 15.36065115 8.21421296 12.13893865 3.33203125 7.37109375 C1.02049828 4.78761572 0 3.53958049 0 0 Z " fill="#9C3FA4" transform="translate(297,470)"/>
<path d="M0 0 C2.85552763 1.2979671 4.88108294 2.69873873 7.125 4.875 C15.8504416 12.38550669 24.96922806 12.52947705 36 12 C31.70779353 16.51231963 28.45406287 17.71369267 22.25 18.4375 C16.12741267 18.24983449 10.63064217 15.32752291 6.1015625 11.3203125 C2.93597501 7.84588721 1.12925908 4.62996221 0 0 Z " fill="#9A3EA4" transform="translate(284,507)"/>
<path d="M0 0 C0.89138672 0.61488281 0.89138672 0.61488281 1.80078125 1.2421875 C11.87362766 7.79032094 21.20149877 8.37063355 33 8 C29.53771955 11.7095862 27.14106003 13.73095145 22.046875 14.37109375 C14.73379916 14.51839504 9.46662087 14.15769635 4 9 C1.47618649 6.12385925 0 3.95006264 0 0 Z " fill="#9A3FA6" transform="translate(326,524)"/>
<path d="M0 0 C0.66 0.33 1.32 0.66 2 1 C-5.6984127 11.8994709 -5.6984127 11.8994709 -12 14 C-19.60836565 14.78034519 -25.58841868 13.27438754 -32 9 C-32 8.34 -32 7.68 -32 7 C-30.73285156 7.04640625 -29.46570313 7.0928125 -28.16015625 7.140625 C-17.30545343 7.41955823 -8.59502185 7.47393205 0 0 Z " fill="#9B3FA5" transform="translate(399,456)"/>
<path d="M0 0 C0.58007812 0.39832031 1.16015625 0.79664063 1.7578125 1.20703125 C10.46466342 7.11217272 16.66418889 10.1840685 27.25 10.0625 C27.99507813 10.05798828 28.74015625 10.05347656 29.5078125 10.04882812 C31.3385764 10.03709246 33.16929873 10.0191585 35 10 C32.77608801 13.51143998 30.98974954 14.83945057 27 16 C20.08073818 17.02473996 14.37373453 16.86563145 8.4375 12.9375 C4.40777547 9.71372037 2.03817274 6.72485498 0 2 C0 1.34 0 0.68 0 0 Z " fill="#993CA2" transform="translate(309,429)"/>
<path d="M0 0 C-2.80021348 9.99661704 -10.66604822 16.52462893 -19.3359375 21.7265625 C-23.01408415 23.48473817 -25.94395977 23.92347094 -30 24 C-25.81240606 19.62168396 -21.25952932 15.81965199 -16.5625 12 C-15.08452396 10.79180299 -13.6066574 9.58347205 -12.12890625 8.375 C-11.42652832 7.80394531 -10.72415039 7.23289062 -10.00048828 6.64453125 C-8.17336217 5.14251496 -6.38132299 3.60659743 -4.58984375 2.0625 C-2 0 -2 0 0 0 Z " fill="#983CA2" transform="translate(541,621)"/>
<path d="M0 0 C0.33 0 0.66 0 1 0 C0.63223832 6.30267439 -0.16625922 11.33251843 -3 17 C-3.66 17 -4.32 17 -5 17 C-5.38091797 17.89332031 -5.38091797 17.89332031 -5.76953125 18.8046875 C-8.4810232 23.64233346 -13.74082474 26.87543882 -19 28.375 C-19.99 28.58125 -20.98 28.7875 -22 29 C-21.21625 28.113125 -20.4325 27.22625 -19.625 26.3125 C-12.90739484 18.46468165 -6.58981348 10.23945074 -1.05859375 1.51171875 C-0.70925781 1.01285156 -0.35992188 0.51398437 0 0 Z " fill="#993DA3" transform="translate(566,614)"/>
<path d="M0 0 C0.27328125 0.5775 0.5465625 1.155 0.828125 1.75 C4.55208793 8.90000882 9.20980018 14.40326673 17 17 C19.22818441 17.06937062 21.45834524 17.08457084 23.6875 17.0625 C24.86699219 17.05347656 26.04648437 17.04445313 27.26171875 17.03515625 C28.16535156 17.02355469 29.06898438 17.01195312 30 17 C25.95842117 21.17629812 24.07757749 22.17478362 18.25 22.3125 C12.94862485 22.25549597 10.00395273 21.71098058 6 18 C1.94537395 13.6573404 -0.13945727 10.87766684 -0.0625 4.875 C-0.05347656 3.96492188 -0.04445313 3.05484375 -0.03515625 2.1171875 C-0.02355469 1.41851562 -0.01195312 0.71984375 0 0 Z " fill="#993CA2" transform="translate(286,438)"/>
<path d="M0 0 C1.0209375 0.433125 1.0209375 0.433125 2.0625 0.875 C3.031875 1.24625 4.00125 1.6175 5 2 C5.969375 2.37125 6.93875 2.7425 7.9375 3.125 C15.54423082 5.25287404 24.33848985 4.45766936 32 3 C30.26762792 7.08222331 28.4362971 8.41706775 24.484375 10.234375 C18.38652495 12.11358665 12.24470075 12.08226644 6.5 9.3125 C4.01464225 7.01354408 1.91259953 4.79533778 0 2 C0 1.34 0 0.68 0 0 Z " fill="#9B3FA6" transform="translate(349,506)"/>
<path d="M0 0 C0.639375 0.268125 1.27875 0.53625 1.9375 0.8125 C3.4534375 1.4003125 3.4534375 1.4003125 5 2 C5.58523438 2.26425781 6.17046875 2.52851562 6.7734375 2.80078125 C14.31840833 5.85056831 22.01142699 5.26465211 30 5 C25.79520927 10.70650171 25.79520927 10.70650171 22 12 C16.81362859 12.67375822 12.36922294 12.65925549 7.625 10.375 C4.69887421 7.72755286 2.34629082 5.17439346 0 2 C0 1.34 0 0.68 0 0 Z " fill="#9A3FA9" transform="translate(327,553)"/>
<path d="M0 0 C0.99 0 1.98 0 3 0 C3 0.66 3 1.32 3 2 C3.763125 2.144375 4.52625 2.28875 5.3125 2.4375 C8 3 8 3 11 4 C13.59462456 4.09715555 16.1561562 4.13919987 18.75 4.125 C19.4409375 4.12886719 20.131875 4.13273437 20.84375 4.13671875 C25.32653965 4.12829245 29.5767176 3.72949422 34 3 C29.26569662 8.15203603 25.27084322 11.09429768 18.1875 11.5 C12.58395218 11.31406025 8.3827428 9.45442254 4 6 C2.30899814 4.05375257 1.22574498 2.29161018 0 0 Z " fill="#9B3EA4" transform="translate(327,458)"/>
<path d="M0 0 C0 3 0 3 -1.5 5.5 C-5.72818812 9.72818812 -10.5281195 11.11774986 -16.4375 11.5 C-22.37374106 11.30452586 -27.50314532 8.36923766 -31.7578125 4.33203125 C-32.16773438 3.89246094 -32.57765625 3.45289063 -33 3 C-31.4221875 3.2475 -31.4221875 3.2475 -29.8125 3.5 C-19.45454565 4.74662105 -9.50417441 4.75208721 0 0 Z " fill="#9B3EA4" transform="translate(393,436)"/>
<path d="M0 0 C0.33 0 0.66 0 1 0 C1.48085624 3.95812995 1.95937137 7.91653971 2.4375 11.875 C2.57220703 12.98359375 2.70691406 14.0921875 2.84570312 15.234375 C5.14742103 34.32179174 5.14742103 34.32179174 5.0625 41.625 C5.05347656 42.64851563 5.04445313 43.67203125 5.03515625 44.7265625 C5.02355469 45.47679687 5.01195312 46.22703125 5 47 C-1.43217182 40.56782818 -1.24692786 28.31370748 -1.32568359 19.84570312 C-1.26775207 4.32005499 -1.26775207 4.32005499 0 0 Z " fill="#9644B7" transform="translate(298,277)"/>
<path d="M0 0 C0.72445313 0.48210937 1.44890625 0.96421875 2.1953125 1.4609375 C3.16210938 2.09257812 4.12890625 2.72421875 5.125 3.375 C6.07632812 4.00148438 7.02765625 4.62796875 8.0078125 5.2734375 C13.51687622 8.45229672 18.5904958 9.33269748 24.875 9.625 C25.90753906 9.68300781 25.90753906 9.68300781 26.9609375 9.7421875 C28.64023246 9.83548166 30.32007767 9.91878238 32 10 C28.96092855 13.24866259 27.07076738 14.83095777 22.51171875 15.203125 C15.2177107 15.32418737 10.92258411 14.58274875 5.3125 9.625 C0 3.59459459 0 3.59459459 0 0 Z " fill="#993CA2" transform="translate(310,494)"/>
<path d="M0 0 C2.16100182 1.07799395 4.31880719 2.16167 6.47265625 3.25390625 C7.32730469 3.68574219 8.18195313 4.11757813 9.0625 4.5625 C9.91972656 4.99691406 10.77695312 5.43132812 11.66015625 5.87890625 C16.23941482 8.07297505 20.21323117 8.11897641 25.1875 8.0625 C25.93708984 8.05798828 26.68667969 8.05347656 27.45898438 8.04882812 C29.30602383 8.03706354 31.15302213 8.01912865 33 8 C29.63668316 11.60355376 27.19548545 13.67381359 22.265625 14.40625 C15.66576357 14.61142704 11.64472149 14.08456219 6.62109375 9.65625 C3.60916589 6.57900322 1.3710984 4.1132952 0 0 Z " fill="#993DA3" transform="translate(338,479)"/>
<path d="M0 0 C0.99 0.495 0.99 0.495 2 1 C2.625 3.5625 2.625 3.5625 3 6 C3.66 6 4.32 6 5 6 C8 11.625 8 11.625 8 15 C8.66 15 9.32 15 10 15 C11.87062493 18.26168237 13.71857576 21.53566022 15.5625 24.8125 C16.09552734 25.74126953 16.62855469 26.67003906 17.17773438 27.62695312 C17.67724609 28.51962891 18.17675781 29.41230469 18.69140625 30.33203125 C19.15748291 31.15421143 19.62355957 31.9763916 20.10375977 32.82348633 C21 35 21 35 20 38 C10.18720859 27.94244509 0 14.80598417 0 0 Z " fill="#9846B8" transform="translate(279,287)"/>
<path d="M0 0 C2.68789447 2.68789447 3.04788842 5.59732272 3.875 9.1875 C4.22424629 10.64217094 4.57453186 12.09659269 4.92578125 13.55078125 C5.10318848 14.29150879 5.2805957 15.03223633 5.46337891 15.79541016 C7.5327402 24.29692631 9.80187778 32.74875195 12.58203125 41.046875 C13 43 13 43 12 46 C3.26294711 31.94635749 -0.56858018 16.48882535 0 0 Z " fill="#9643B7" transform="translate(391,279)"/>
<path d="M0 0 C0.33 0 0.66 0 1 0 C1.53841362 17.3120688 1.10390834 32.00093995 -6 48 C-6.33 48 -6.66 48 -7 48 C-6.35751828 39.20663085 -5.14118327 30.52347593 -3.84326172 21.80859375 C-3.49660752 19.47718404 -3.15622504 17.14491479 -2.81640625 14.8125 C-2.59672326 13.32286219 -2.37668439 11.83327681 -2.15625 10.34375 C-2.00464417 9.30317444 -2.00464417 9.30317444 -1.84997559 8.24157715 C-1.41986164 5.37576173 -0.91894736 2.75684209 0 0 Z " fill="#9543B6" transform="translate(413,277)"/>
<path d="M0 0 C3.76560288 3.6764356 7.26954512 7.4996687 10.6875 11.5 C11.20280273 12.10150879 11.71810547 12.70301758 12.24902344 13.32275391 C17.39229737 19.3769146 22.23134553 25.64882745 27 32 C21.86819607 32 18.67651827 28.33384122 15 25 C9.18065929 18.90354783 0 8.96194362 0 0 Z " fill="#9745B8" transform="translate(374,292)"/>
<path d="M0 0 C0.33 0 0.66 0 1 0 C2.06943588 13.47489208 -2.97917694 27.60554947 -10 39 C-10.98264434 40.01705954 -11.98007945 41.02032553 -13 42 C-11.30808566 33.0410078 -8.29557311 24.55282238 -5.375 15.9375 C-4.85374655 14.38881321 -4.33290964 12.83998616 -3.8125 11.29101562 C-2.54646623 7.52570844 -1.27480038 3.7623477 0 0 Z " fill="#9341B5" transform="translate(319,282)"/>
<path d="M0 0 C0.33 0.66 0.66 1.32 1 2 C-3.60326989 13.52818895 -13.06214765 23.72237581 -23 31 C-25.26171875 31.71484375 -25.26171875 31.71484375 -27 32 C-23.07753826 26.49317136 -18.79417206 21.44546249 -14.23828125 16.453125 C-9.34646152 11.09175887 -4.61828614 5.5979226 0 0 Z " fill="#9644B7" transform="translate(336,293)"/>
<path d="M0 0 C1 2 1 2 0.46875 4.1796875 C-3.73967193 15.88860334 -10.1727421 30.26557193 -22 36 C-20.51828283 31.85426283 -18.47215909 28.42767137 -16.0625 24.75 C-15.26301411 23.52344188 -14.46353529 22.29687916 -13.6640625 21.0703125 C-13.23770508 20.4196582 -12.81134766 19.76900391 -12.37207031 19.09863281 C-10.38233153 16.05525299 -8.41042993 13.00042486 -6.43725586 9.94628906 C-4.29410777 6.62917169 -2.14691683 3.31467907 0 0 Z " fill="#9644B7" transform="translate(431,289)"/>
<path d="M0 0 C4.95 0 9.9 0 15 0 C15.33 1.32 15.66 2.64 16 4 C14.5625 6.25 14.5625 6.25 12 8 C7.08692938 8.62388198 5.13665594 8.75777063 1 6 C0.34 5.34 -0.32 4.68 -1 4 C-0.67 2.68 -0.34 1.36 0 0 Z " fill="#C48E6A" transform="translate(352,151)"/>
</svg>
